<?xml version="1.0" encoding="UTF-8"?>
<svg id="Layer_2" data-name="Layer 2" xmlns="http://www.w3.org/2000/svg" viewBox="0 0 219.26 451.82">
  <defs>
    <style>
      .cls-1 {
        fill: #585857;
      }
    </style>
  </defs>
  <g id="OBJECT">
    <g>
      <path class="cls-1" d="M72.22,266.3c.07-.14.2-.28.21-.43.04-.76.04-1.53.09-2.3.03-.4.09-.81.22-1.19.26-.79.97-1.12,1.72-.76.52.25,1.02.59,1.46.96,2.02,1.68,3.72,3.64,5.19,5.84,2.34,3.51,3.79,7.35,4.68,11.45.88,4.1,1.64,8.22,2.22,12.37.3,2.14.37,4.31.49,6.47.04.67-.03,1.35-.12,2.02-.34,2.6-.89,5.16-1.8,7.62-.94,2.55-.98,5.1-.33,7.71.15.6.68,1.08.49,1.77.21.29.4.6.64.86.75.84,1.54,1.64,2.27,2.5,1.35,1.57,2.64,3.19,3.99,4.76,1.47,1.71,2.99,3.37,4.48,5.06,2.48,2.8,4.95,5.61,7.43,8.41.33.37.65.75,1,1.1,2.17,2.16,4.27,4.4,6.64,6.35,1.53,1.26,2.93,2.67,4.45,3.94,4.04,3.38,7.98,6.89,12.16,10.1.4.31.73.79,1.33.77.06.04.12.07.18.1-.07-.02-.13-.05-.2-.07-.23-.76-.74-1.34-1.28-1.88-3.24-3.23-5.99-6.85-8.55-10.63-1.82-2.69-3.62-5.39-5.39-8.11-.74-1.13-1.4-2.32-2.04-3.51-1.09-2.03-2.18-4.05-3.19-6.12-1.71-3.53-3.37-7.09-5.02-10.65-1.01-2.17-2.03-4.34-2.93-6.55-1.26-3.09-2.5-6.19-3.6-9.34-1.83-5.24-3.28-10.6-4.8-15.93-.84-2.95-1.71-5.89-2.34-8.89-1.55-7.37-2.94-14.77-3.89-22.24-.51-4.02-.89-8.07-1.34-12.1-.18-1.61-.39-3.22-.56-4.84-.45-4.21-.87-8.43-1.32-12.64-.61-5.65-1.23-11.29-1.85-16.94-.48-4.35-.99-8.69-1.47-13.04-.11-1.03-.18-2.07-.25-3.1-.04-.64-.24-1.21-.49-1.81-1.05-2.52-2.84-4.48-4.76-6.33-2.8-2.69-5.67-5.28-8.51-7.93-1.65-1.54-3.33-3.05-4.67-4.88-2-2.73-3.89-5.53-5.65-8.42-1.32-2.16-2.44-4.43-3.43-6.75-1.16-2.7-2.14-5.46-2.75-8.34-.22-1.06-.4-2.14-.23-3.22.07-.48.21-.98.43-1.41.45-.84,1.36-1.1,2.2-.64.43.23.82.56,1.19.88,1.02.91,1.83,1.99,2.61,3.1,2.74,3.86,5.61,7.63,8.53,11.35,2.34,2.98,4.54,6.07,6.58,9.25,1.04,1.63,1.92,3.37,2.84,5.08.66,1.23,1.26,2.5,1.9,3.74,1.33,2.58,2.34,5.27,3.08,8.08.03.13.11.24.27.57.02-.51.07-.8.03-1.08-.2-1.79-.39-3.58-.65-5.37-.66-4.64-1.37-9.28-2.33-13.87-1.16-5.56-2.41-11.1-3.9-16.59-.46-1.7-.96-3.38-1.45-5.07-.04-.12-.11-.24-.19-.42-2.71.32-5.27-.41-7.82-1.17-1.47-.43-2.95-.86-4.41-1.31-.34-.1-.69-.23-1-.41-.63-.36-.7-1.09-.16-1.59.23-.21.51-.39.8-.49.89-.3,1.79-.63,2.71-.82,1.15-.24,2.32-.34,3.48-.5.26-.04.53-.07.77-.1.16-.41-.18-.51-.35-.66-1.79-1.65-3.6-3.28-5.39-4.93-.4-.36-.76-.77-1.11-1.18-.14-.16-.27-.37-.34-.57-.21-.62.13-1.2.77-1.34.55-.12,1.1-.03,1.59.2,1.06.5,2.12,1,3.13,1.59,1.33.77,2.49,1.79,3.63,2.81.23.21.47.4.83.71.03-.58-.11-.99-.23-1.38-.96-3.15-1.94-6.29-2.91-9.44-.5-1.64-.99-3.28-1.49-4.92-.08-.25-.18-.49-.26-.7-.39-.15-.56.1-.77.25-.6.4-1.16.86-1.8,1.2-.55.29-1.17.46-1.77.63-.29.08-.63.05-.94.02-1.1-.13-1.51-.56-1.77-1.86-.26.03-.53.05-.79.1-2.82.51-5.35-.32-7.75-1.73-.31-.18-.6-.41-.84-.67-.93-.98-.77-2.16.41-2.81.51-.28,1.08-.47,1.64-.61,2.03-.51,4.1-.61,6.18-.51,1.03.05,2.07.18,3.1.28.49.05.99.14,1.48.13.44-.01.88-.15,1.42-.25-.09.2-.11.38-.21.46-.55.44-1.18.65-1.88.61-.68-.04-1.35-.08-2.03-.12-2.3-.14-4.6-.12-6.87.33-.57.11-1.14.28-1.7.45-.35.11-.67.28-.79.67.03.48.4.69.75.89,2.4,1.36,4.93,1.98,7.67,1.27.83-.22,1.63-.53,2.44-.81.85-.3,1.69-.62,2.54-.94.46-.17.91-.36,1.41-.56-.1-.5-.17-.94-.27-1.37-.18-.69-.38-1.38-.56-2.03-1.26-.58-2.45-1.13-3.61-1.67-.1.06-.21.09-.23.15-.43,1.09-1.29,1.43-2.38,1.37-.27-.01-.54-.02-.81-.07-3-.51-5.9-1.31-8.62-2.7-1.33-.68-2.57-1.51-3.59-2.62-.65-.7-1.2-1.46-1.41-2.43-.36-1.67.46-2.93,2.15-3.29,1.24-.26,2.43-.04,3.59.34.68.22,1.35.51,2.23.85-.23-.29-.32-.46-.45-.56-1.22-.95-2.31-2.02-3.22-3.26-.47-.65-.9-1.36-1.2-2.11-.47-1.18.17-2.04,1.46-2.1.79-.04,1.52.19,2.23.48,1.23.48,2.31,1.22,3.39,1.96.29.2.58.37,1,.44-.11-.21-.21-.43-.34-.64-.67-1.04-1.07-2.19-1.37-3.37-.12-.47-.18-.98-.17-1.47.02-.97.73-1.47,1.66-1.18.42.13.85.33,1.21.58.74.51,1.44,1.08,2.15,1.64.28.22.53.46.76.66.32-.09.28-.29.25-.46-.11-.62-.17-1.26-.38-1.85-.67-1.82-1.39-3.62-2.1-5.42-.08-.2-.21-.39-.37-.68-1.21,1.29-2.76,1.9-4.25,2.6-1.24.57-2.55.91-3.88,1.14-1.36.23-2.71.14-4-.34-.46-.17-.91-.41-1.29-.72-.66-.53-.72-.98-.36-1.79.05-.12.14-.23.25-.42-.41-.12-.79-.23-1.17-.35-.61-.19-1.2-.42-1.64-.91-.26-.3-.52-.63-.68-.99-.31-.72-.08-1.36.64-1.69.53-.24,1.1-.41,1.66-.58.68-.2,1.38-.36,2.06-.68-.34-.06-.69-.11-1.03-.17-.67-.11-1.34-.2-2-.35-.62-.14-1.21-.41-1.65-.88-.3-.32-.58-.7-.74-1.1-.33-.84,0-1.64.81-2.04.44-.22.92-.37,1.39-.52.64-.2,1.29-.35,2.11-.58-.44-.21-.71-.34-.98-.48-.68-.35-1.39-.66-2.03-1.08-.4-.26-.77-.64-1.02-1.05-.5-.81-.29-1.68.45-2.29.62-.5,1.34-.73,2.11-.84,1.08-.15,2.16-.18,3.24-.03,1.65.24,3.3.5,4.89,1.05.2.07.41.1.72.18-.71-1.4-1.36-2.66-2.03-3.98-.26.04-.52.06-.78.11-1.9.43-3.81.77-5.75.27-.3-.08-.52.03-.77.14-.53.25-1.05.53-1.59.75-1.5.63-3.06.71-4.65.39-.77-.15-1.46-.48-2.08-.95-.28-.22-.55-.47-.76-.76-1.13-1.53-.73-2.96,1.03-3.69.42-.17.86-.28,1.28-.43.23-.09.45-.21.77-.36-.45-.32-.87-.27-1.25-.39-.99-.3-2-.55-2.96-.93-1.11-.43-2.03-1.17-2.74-2.14-.95-1.29-.63-2.81.81-3.53.59-.3,1.26-.49,1.92-.61,1.71-.31,3.42-.14,5.11.13.53.09,1.06.2,1.63.31.03-.16.09-.3.06-.4-.5-1.35-1.02-2.69-1.58-4.15-.91-.21-1.63-.89-2.24-1.67-1.86-2.4-4.42-3.64-7.24-4.47-.65-.19-1.32-.33-1.99-.39-.71-.05-1.44,0-2.15.07-.27.03-.53.26-.89.46.33.39.55.73.85.98,1,.84,1.98,1.71,3.05,2.46,2.3,1.6,4.81,2.85,7.35,4.03,1.03.48,1.08.46,2.2.37.33.26.4.58.19.95-.18.31-.46.42-.8.41-.22,0-.45-.02-.67-.07-.31-.06-.63-.12-.91-.25-3.82-1.65-7.53-3.5-10.68-6.29-.3-.27-.62-.53-.88-.84-.92-1.07-1.01-.82-.94-2.58-.33-.16-.71-.3-1.04-.52-.44-.31-.9-.63-1.23-1.03-.57-.7-.53-1.4.08-2.08.61-.68,1.34-1.2,2.15-1.62,1.21-.62,2.51-.99,3.82-1.35.32-.09.63-.23,1.03-.37-.41-.33-.79-.27-1.13-.32-1.29-.19-2.59-.34-3.88-.56-1.4-.23-2.7-.74-3.86-1.55-.33-.23-.63-.51-.87-.83-.34-.46-.21-.99.29-1.26.27-.15.57-.29.88-.35,1.55-.28,3.1-.64,4.68-.64.67,0,1.34.08,2.11.13-.42-1.06-1.31-1.67-1.83-2.53-.51-.84-1.07-1.65-1.65-2.54-.26.05-.52.1-.78.15-.31.06-.62.15-.93.17-2.31.17-4.6-.02-6.86-.5-.43-.09-.85-.31-1.21-.56-.51-.34-.6-.94-.2-1.41.28-.33.66-.61,1.05-.81.73-.38,1.54-.52,2.35-.56,2.11-.11,4.21-.54,6.33-.45.07,0,.14-.08.27-.15-.82-1.29-1.63-2.57-2.44-3.86-.54-.11-.98.16-1.44.32-1.2.41-2.43.68-3.71.69-1.81.02-3.34-.67-4.59-1.96-.27-.28-.51-.64-.65-1.01-.28-.72.02-1.36.73-1.65.29-.12.6-.19.91-.23,1.89-.19,3.78-.27,5.67-.03.66.08,1.31.29,2.17.48-.45-.36-.82-.47-1.18-.59-1.77-.6-3.35-1.56-4.84-2.67-.54-.4-1.03-.88-1.51-1.35-.22-.22-.4-.5-.52-.78-.23-.54.16-1.14.77-1.14.35,0,.72.07,1.05.21,1.34.54,2.68,1.09,3.86,1.94.14.1.3.18.47.28-.06-.83-.5-1.98-.94-2.41-.16-.16-.35-.28-.5-.45-.42-.49-.89-.77-1.57-.91-1.58-.32-2.67-1.44-3.66-2.63-.56-.67-.96-1.42-1.15-2.27-.16-.71.27-1.16.99-1.02,1.42.29,2.61.99,3.5,2.15.68.89,1.32,1.82,2.07,2.86.07-.32.12-.51.16-.71.08-.49.1-.99.25-1.46.27-.87,1-1.16,1.82-.74,1.01.52,1.69,1.36,2.04,2.42.22.68.35,1.4.39,2.12.1,1.72-.07,3.42-.36,5.12-.09.5-.38.85-.89,1.27,1,.31,1.83.37,2.45.93.6.54,1.2,1.08,1.87,1.69.1-.28.23-.5.27-.74.48-2.62.97-5.23,1.42-7.86.09-.53.07-1.08.07-1.62,0-.22-.06-.45-.13-.66-.13-.38-.57-.49-.88-.23-.5.43-.76,1.01-.93,1.62-.65,2.28-.95,4.58-.43,6.94-.17.36-.47.28-.66.09-.24-.25-.49-.55-.58-.87-.14-.52-.2-1.07-.2-1.6-.02-1.45.08-2.89.46-4.29.18-.65.45-1.27.71-1.9.1-.25.27-.47.44-.68.53-.65,1.21-.95,2.03-.77.79.17,1.22.75,1.4,1.5.11.43.15.9.12,1.34-.05.85-.15,1.71-.26,2.55-.11.8-.26,1.6-.4,2.41.38.05.35-.25.44-.42.38-.72.7-1.47,1.14-2.15.29-.44.69-.85,1.12-1.15.97-.68,1.93-.37,2.44.7.28.59.38,1.21.36,1.84-.05,1.08-.09,2.17-.23,3.24-.28,2.11-.8,4.16-1.55,6.16-.26.68-.56,1.34-1.08,1.85-.17.17-.44.24-.78.42.01-.35-.02-.58.03-.78.19-.74.4-1.48.62-2.21.74-2.47,1.33-4.97,1.51-7.55.06-.81.12-1.62-.24-2.49-.25.1-.54.13-.69.29-.31.32-.61.69-.78,1.09-.4.9-.81,1.82-1.07,2.77-.57,2.01-.69,4.09-.56,6.17.03.53.19,1.04.31,1.65-.47.32-.75.85-.87,1.47-.76-.24-.95-.76-1.23-1.21-.78-1.27-1.56-2.53-2.4-3.76-.35-.52-.83-.94-1.27-1.4-.11-.11-.28-.15-.57-.3.1.66.37,1.06.61,1.47.92,1.6,1.96,3.14,3.09,4.6.19.25.37.52.58.75.46.5.67,1.06.27,1.89.3.07.51.13.69.17.98-1.6,1.11-1.65,2.87-.97.18-.11.36-.23.54-.35.58.23.81.72.91,1.26.07.35-.42.68-.04,1.1.26.29.41.69.6,1.03.36,0,.33-.25.36-.46.19-1.11.35-2.23.59-3.33.23-1.07.69-2.06,1.39-2.91.4-.48.86-.94,1.38-1.28.94-.62,2.07-.44,2.83.38.37.4.63.86.78,1.41.29,1.11.24,2.24.15,3.36-.04.43-.08.86-.15,1.52.33-.29.49-.42.65-.56.75-.64,1.47-1.33,2.27-1.92.5-.37,1.08-.67,1.68-.85,1.16-.37,2.08.16,2.39,1.33.12.47.18,1,.09,1.47-.17.93-.37,1.87-.73,2.73-.93,2.24-2.29,4.19-4.28,5.64-.18.13-.34.28-.56.45.77,1.24,1.53,2.44,2.29,3.67.3.03.31-.21.36-.43.22-1.06.42-2.13.69-3.17.31-1.19.86-2.28,1.59-3.27.33-.44.73-.79,1.24-1.02,1.07-.48,2.23-.15,2.82.85.2.34.36.74.42,1.13.09.57.15,1.17.12,1.75-.13,2.59-.59,5.1-1.61,7.5-.05.12-.07.25-.11.43,1.86,2.14,2.64,4.75,3.1,7.49.04.06.09.12.13.18-.04-.06-.08-.13-.13-.19.12-.04.32-.06.34-.13.08-.35.12-.71.15-1.07.13-1.22.44-2.39.93-3.52.36-.83.83-1.61,1.49-2.24,1.62-1.55,3.28-.71,3.9.63.4.87.68,1.78.77,2.72.11,1.12.11,2.25.15,3.37,0,.31-.04.62-.06.91.44.22.73-.09,1.06-.18,1.86-.5,3.37.46,3.63,2.37.08.57.09,1.17.02,1.75-.26,2.15-1.04,4.1-2.41,5.8-.23.28-.48.55-.64.87-.63,1.21-1.65,1.73-2.96,1.82-.22.02-.45.04-.69.06-.61.72-1.21,1.44-1.87,2.22.1.18.23.4.4.71.31-.39.56-.7.8-1.02.54-.7,1.24-1.18,2.08-1.43.34-.1.71-.16,1.06-.16.73,0,1.31.3,1.6,1.02.08.21.16.41.23.6.32.12.42-.11.57-.26.69-.71,1.33-1.47,2.09-2.11.5-.43,1.12-.77,1.75-.99,1.58-.56,2.8.35,2.8,2.04,0,1.01-.28,1.96-.58,2.91-.15.47-.31.93-.5,1.5.4.02.7.02.99.06.31.04.63.08.93.17,1.32.41,1.73,1.13,1.38,2.46-.05.21-.21.4-.37.71.42.06.67.08.92.14.69.17.98.62.79,1.31-.08.3-.23.59-.38.86-.96,1.65-2.06,3.17-3.51,4.43-.92.8-1.79,1.65-2.72,2.44-.41.34-.89.6-1.36.86-.25.13-.53.11-.73-.14-.15-.2-.09-.5.14-.72,1.33-1.28,2.68-2.54,4-3.83.77-.76,1.46-1.58,2-2.56-.36-.23-.45.19-.68.21-.22.02-.44.08-.65.14-.25.08-.51.17-.74.29-.2.1-.36.28-.55.4-1.37.87-2.77,1.69-4.26,2.35-.42.18-.84.32-1.38.18-.16-.59-.31-1.18-.49-1.82-.18-.09-.41-.21-.66-.34-.02-.14-.07-.28-.06-.4.05-.4.16-.8.19-1.2.03-.31.03-.64-.03-.94-.14-.73-1.03-1.03-1.58-.54-.63.56-1.07,1.22-1.02,2.11.05.81.1,1.62.18,2.42.08.79.09.78-.73,1.17-.15.07-.27.21-.4.33-.03.02-.02.08-.03.13,0,.24.22.25.38.32.57.27,1.17.49,1.71.81,1.02.62,1.7,1.45,1.46,2.78-.09.5.08.97.34,1.42.87,1.49,1.47,3.09,2.09,4.69.26.66.47,1.34.76,2.17.32-.69.55-1.21.81-1.77-.72-2.44-1.6-4.85-2.64-7.2-.16-.37-.32-.75-.46-1.13-.11-.3.02-.61.26-.67.25-.07.45.03.58.23.36.57.76,1.13,1.05,1.74.47.99,1.28,1.73,1.83,2.66,1.03,1.75,2.1,3.48,2.91,5.34.26.6.3,1.14-.33,1.62.22.46.42.91.64,1.34.21.42.35.9.76,1.42.2-.52.34-.88.48-1.24.43-1.15.95-2.25,1.85-3.11.26-.25.54-.49.85-.66.88-.47,1.8-.27,2.4.53.27.35.46.75.73,1.2.26-.21.48-.42.73-.58.65-.42,1.28-.14,1.37.64.05.49.03.99-.02,1.48-.23,2.11-.64,4.19-1.2,6.24-.95,3.46-2.3,6.74-4.41,9.68-.26.36-.36.71-.25,1.14.06.26.1.52.15.74-.2.28-.39.24-.63.18-.29-.08-.6-.08-.95-.12-.59-.77-.89-1.72-1.26-2.63-1.01-2.46-2.08-4.9-3.55-7.14-.32-.49-.68-.94-1.07-1.48-.26.36-.17.64-.09.92.77,2.91,2.02,5.6,3.63,8.12.73,1.14,1.54,2.22,2.3,3.34.3.44.69.85.34,1.47-.07.12.14.39.25.67-.35.09-.68.17-1.01.25-.02.08-.09.17-.07.23,1.06,3.35,2.12,6.71,3.18,10.06.31.99.63,1.98.95,2.96.11.34.25.67.42,1.13.38-.54.59-.99.47-1.55-.54-2.42-1.07-4.84-1.64-7.25-.29-1.22-.68-2.42-1.02-3.64-.18-.66-.11-1.28.46-1.71.34-.26.54-.59.7-.96.45-1.04,1.07-1.98,1.8-2.85.93-1.1,1.88-2.19,2.79-3.31.88-1.08,1.77-2.16,2.58-3.3.57-.81,1.03-1.69,1.49-2.57.18-.35.23-.77.28-1.17.04-.33-.26-.6-.58-.63-.52-.03-.97.13-1.4.42-.94.64-1.74,1.44-2.38,2.38-.68,1.01-1.29,2.06-1.96,3.08-.27.41-.58.8-.91,1.15-.08.09-.37.09-.48.01-.11-.07-.22-.34-.17-.45,1.1-2.38,2.23-4.74,4.21-6.55.33-.3.67-.62,1.06-.83.47-.25.98-.49,1.5-.57,1.71-.28,2.82.85,2.5,2.55-.12.61-.37,1.21-.64,1.77-.58,1.23-1.37,2.33-2.22,3.39-.48.59-.95,1.19-1.42,1.76.07.12.08.22.14.26,1.01.56,1.25,1.03.96,2.06-.14.47-.37.92-.59,1.36-.16.32-.37.61-.54.89.02.13,0,.24.05.31.72,1.16.38,2.2-.46,3.08-1.38,1.45-3.09,2.14-5.14,1.93-.28.34-.37.73-.22,1.22.26.82.47,1.64.68,2.47.25.96.49,1.92.7,2.89.14.61.24,1.23.64,1.85.28-.26.53-.5.79-.71.81-.66,1.81-.67,2.59,0,.62.54,1.11,1.19,1.23,2.04.1.79.18,1.59.27,2.4.3-.02.3-.28.36-.46.46-1.27.9-2.55,1.35-3.83.49-1.36,1.03-2.7,1.83-3.92.39-.6.83-1.18,1.34-1.69.34-.34.79-.62,1.24-.79,1.11-.42,2.26.27,2.38,1.45.07.66.04,1.37-.12,2.01-.25,1-.57,2-.99,2.94-1.11,2.47-2.15,4.97-3.53,7.31-.3.51-.28.52.21,1.03.22-.36.43-.69.63-1.04.63-1.11,1.39-2.12,2.38-2.92.44-.37.96-.68,1.5-.88.83-.31,1.55.07,1.8.92.14.46.17.98.13,1.46-.16,2.14-.97,4.03-2.39,5.63-.75.84-1.62,1.56-2.44,2.34-.22.21-.45.42-.74.69.22.19.39.32.54.46.78.73.93,1.47.45,2.43-.48.95-1.21,1.68-2.17,2.16-.64.33-1.3.62-2.04.97.02.57.14,1.21.36,1.85.48,1.41.82,2.85,1.05,4.33.25,1.64.6,3.26,1.17,4.85.53,1.48.9,3.02,1.21,4.57.55,2.69.99,5.4,1.49,8.1.12.62.34,1.21.49,1.82.35,1.44.68,2.89,1.01,4.34.1.44.18.88.22,1.33.16,1.75.31,3.5.46,5.25.15,1.75.49,3.47.85,5.2.41,1.93.61,3.91.9,5.87.35,2.36.65,4.73,1.07,7.08.29,1.59.68,3.17.84,4.79.13,1.26.25,2.51.39,3.76.03.26.13.51.2.77-.02.1-.04.2-.07.29.04,0,.08,0,.12,0-.03-.1-.06-.2-.09-.29.34-.1.3-.41.34-.66.24-1.47.48-2.94.7-4.41.35-2.32.7-4.64,1.04-6.96.31-2.11.8-4.18,1.62-6.14.98-2.33,2-4.64,3.12-6.91,1.77-3.62,4.31-6.64,7.46-9.15,3.38-2.7,6.79-5.37,10.38-7.79,1.65-1.11,3.36-2.12,5.18-2.92.97-.43,1.98-.61,3.02-.68.4-.02.82.02,1.2.12,1.09.28,1.64,1.07,1.57,2.2-.02.36-.1.72-.22,1.05-.19.55-.41,1.1-.66,1.63-1.24,2.56-2.64,5.03-4.19,7.42-3.15,4.84-6.41,9.6-9.87,14.22-1,1.33-2.06,2.62-3.14,3.9-1.69,2-3.45,3.93-5.12,5.94-2.36,2.85-4.68,5.73-6.79,8.76-1.87,2.67-3.41,5.52-4.68,8.53-.36.85-.51,1.7-.4,2.63.33,3,.6,6.01.92,9.01.13,1.25.3,2.5.5,3.75.14.93.37,1.85.51,2.79.18,1.2.37,2.41.48,3.62.34,3.68.83,7.34,1.37,11,.27,1.83.42,3.67.65,5.5.36,2.86.58,5.74,1.19,8.57.14.66.17,1.34.21,2.01.11,1.67.27,3.32.6,4.96.15.75.25,1.51.4,2.26.4,2.08.73,4.17,1.24,6.22.46,1.84.88,3.68,1.35,5.51.32,1.26.79,2.49,1.18,3.73.23.73.42,1.47.63,2.21.58,1.99,1.15,3.98,1.75,5.96.4,1.34.8,2.68,1.29,3.98,1.28,3.42,2.57,6.83,4.15,10.13.2.41.41.82.51,1.25.4,1.68,1.17,3.22,1.86,4.79.75,1.69,1.49,3.39,2.26,5.07.26.57.61,1.1.9,1.66.76,1.49,1.56,2.96,2.24,4.48.79,1.78,1.82,3.41,2.83,5.06,1.25,2.03,2.72,3.93,3.76,6.1.04.08.09.16.14.23,2.12,3.02,3.96,6.24,6.34,9.08,2.08,2.48,3.98,5.12,5.8,7.81,1.11,1.64,2.25,3.25,3.39,4.87.02.03.08.04.21.09-.12-.36-.21-.65-.33-.94-.4-1.01-.77-2.02-1.22-3.01-.86-1.9-1.35-3.92-1.99-5.89-.46-1.41-.86-2.84-1.1-4.32-.11-.66-.37-1.3-.58-1.94-.78-2.41-1.21-4.9-1.58-7.4-.22-1.52-.54-3.02-.73-4.54-.33-2.59-.55-5.2-.56-7.82,0-2.03-.13-4.05-.2-6.09-.23-.05-.44-.09-.65-.14-.44-1.14-.83-2.29-1.32-3.4-1-2.27-2.02-4.54-3.1-6.77-.65-1.34-1.42-2.62-2.14-3.92-.35-.63-.72-1.25-1.06-1.89-1.31-2.52-2.57-5.07-3.93-7.56-.99-1.82-2.12-3.57-3.16-5.36-.57-.97-1.13-1.95-1.63-2.96-1.32-2.67-2.62-5.35-3.67-8.14-.63-1.69-1.33-3.36-1.99-5.03-.75-1.9-1.18-3.88-1.42-5.9-.74-6.41-1.02-12.85-1.26-19.29-.12-3.16-.17-6.31.11-9.46.03-.36.02-.73.12-1.07.1-.33.28-.66.49-.94.22-.3.66-.37.98-.17.26.16.53.37.7.62.68,1,1.45,1.98,1.97,3.06,2.21,4.59,4.41,9.2,6.49,13.85,1.11,2.47,1.98,5.04,2.95,7.56.57,1.47,1.15,2.94,1.7,4.42,1.1,2.96,1.92,6.01,2.71,9.07.76,2.97,1.59,5.92,2.38,8.88.92,3.49,1.81,6.98,2.75,10.46.45,1.65.99,3.28,1.5,4.91.16.51.33,1.02.55,1.68.13-.22.24-.33.26-.46.26-1.92.51-3.84.76-5.76.02-.13,0-.27,0-.46-.72-.36-.88-1.03-.9-1.78-.01-.54-.04-1.08-.04-1.62-.02-2.03-.04-4.06-.05-6.09,0-1.67-.02-3.34.03-5,.09-2.8.07-5.59-.2-8.38-.35-3.72-.47-7.47-1.03-11.17-.42-2.76-.92-5.51-1.34-8.28-.52-3.43-.94-6.88-1.05-10.35-.02-.58-.02-1.18.07-1.75.2-1.28.96-1.66,2.14-1.09.48.23.94.54,1.36.87,1.28,1.01,2.42,2.16,3.29,3.55.65,1.03,1.33,2.04,1.97,3.08,1.52,2.45,2.37,5.15,3.01,7.93,1.54,6.68,1.32,13.34-.26,19.97-.11.47-.2.95-.31,1.45.37-.02.41-.27.49-.45.4-.86.8-1.72,1.18-2.59,1.06-2.4,2.38-4.66,3.76-6.88,2.02-3.26,3.98-6.55,5.95-9.84,1.52-2.54,2.5-5.3,3.49-8.05,1.16-3.23,2.16-6.52,2.8-9.89.46-2.44.85-4.89,1.16-7.35.47-3.74,1.37-7.36,2.87-10.82.89-2.07,1.78-4.15,2.67-6.22,1.4-3.23,2.56-6.55,3.65-9.9.55-1.67,1.14-3.33,1.74-4.98.29-.8.64-1.59,1.01-2.37.19-.4.44-.79.73-1.13.47-.54,1.21-.49,1.59.13.28.46.52.97.63,1.48.98,5,2.13,9.96,2.66,15.04.45,4.36.02,8.65-.95,12.89-.56,2.43-1.62,4.69-2.74,6.91-.71,1.41-1.46,2.8-2.25,4.17-2.1,3.67-4.84,6.83-7.86,9.76-1.1,1.07-2.19,2.14-3.26,3.24-.75.78-1.35,1.68-1.8,2.69-1,2.23-2.2,4.34-3.58,6.36-.25.37-.48.76-.71,1.15-1.41,2.47-2.8,4.95-4.21,7.41-1.69,2.94-3.07,6.03-4.56,9.07-1.2,2.43-2.3,4.9-3.27,7.43-1.4,3.63-2.36,7.39-3.21,11.18-.56,2.47-1,4.95-1.27,7.47-.04.38-.04.77-.08,1.4.39-.39.44-.69.52-.96.31-.99.61-1.98.94-2.97,1.05-3.19,2.56-6.16,4.18-9.08.37-.67.75-1.34,1.1-2.02,1.51-2.95,3.5-5.56,5.68-8.05,2.44-2.78,4.94-5.5,7.61-8.07,2.14-2.07,4.1-4.31,5.99-6.61,1-1.22,2.04-2.41,3.1-3.57.42-.46.94-.85,1.45-1.21.82-.58,1.59-.56,2.13.71.38.88.47,1.84.44,2.79-.1,2.63-.47,5.21-1.32,7.71-.65,1.93-1.47,3.78-2.43,5.58-2.93,5.45-5.98,10.82-9.32,16.02-1.47,2.29-3.22,4.34-5.13,6.27-1.07,1.09-2.12,2.2-3.18,3.31.02.08-.23.1-.06.22,0-.08,0-.16.01-.24.53-.08.86-.45,1.23-.79,2.04-1.85,4.01-3.76,5.85-5.81,3.62-4.04,7.57-7.72,11.92-10.97,1.15-.86,2.25-1.81,3.42-2.65.65-.47,1.38-.86,2.11-1.2.83-.38,1.4-.09,1.66.78.13.43.19.89.17,1.33-.03.72-.1,1.44-.24,2.15-.21,1.06-.44,2.13-.77,3.15-1.88,5.83-4.44,11.34-7.8,16.46-1.31,2-2.82,3.86-4.5,5.57-1.71,1.74-3.32,3.57-5.13,5.19-3.46,3.1-7.09,5.99-11.08,8.42-1.69,1.03-3.34,2.14-4.99,3.24-.4.27-.74.65-1.08,1.01-.59.61-1.15,1.25-1.83,1.98.08,1.69.43,3.5.73,5.33.57,3.48,1.41,6.89,2.51,10.24.41,1.24.88,2.47,1.41,3.66,1.36,3,2.71,6.01,4.19,8.95.99,1.97,2.14,3.87,3.34,5.72,1.93,2.99,4.03,5.87,6.24,8.67.38.48.72,1,1.14,1.58.05-.2.1-.29.08-.34-1.12-2.14-1.65-4.48-2.36-6.76-.84-2.72-1.67-5.43-2.56-8.13-.42-1.28-.98-2.52-1.43-3.8-1.13-3.16-1.83-6.41-2.15-9.75-.1-1.08-.05-2.16.16-3.23.17-.86.55-1.62,1.13-2.27.78-.88,1.63-1.05,2.66-.46.5.29.98.65,1.4,1.05,1.84,1.75,3.41,3.72,4.65,5.94,2.51,4.5,4.78,9.11,6.88,13.81,1.34,3.01,2.77,5.98,4.46,8.81.78,1.32,1.64,2.59,2.54,3.83.98,1.35,2.04,2.64,3.06,3.96.19.24.38.47.58.72.08-.12.17-.19.17-.26-.06-1.35-.11-2.7-.19-4.05-.06-.99-.23-1.97-.25-2.96-.05-2.81-.6-5.55-1.2-8.28-.8-3.65-1.78-7.27-2.19-11-.27-2.46-.48-4.94-.66-7.41-.21-2.83-.37-5.67-.51-8.51-.1-1.94-.16-3.87-.15-5.81,0-.8.18-1.61.34-2.4.08-.39.28-.77.49-1.11.44-.69,1.18-.85,1.88-.44.23.14.45.3.65.49,1.34,1.21,2.68,2.42,3.99,3.65,1.5,1.4,2.66,3.06,3.55,4.91.16.33.31.65.46.98,1.41,3.23,2.85,6.44,4.21,9.69,1.49,3.57,2.34,7.31,2.35,11.19,0,2.7.04,5.43-.56,8.09-.68,3-1,6.05-1.4,9.09,0,.04-.02.09-.02.13-.28,3.87-.64,7.73-.49,11.62.08,1.99.42,3.94.87,5.88.39,1.67.78,3.34,1.16,5.01.07.3.06.62.09.93-.17.02-.3.03-.47.04.21.7.43,1.38.63,2.08.09.3.24.64.17.91-.16.61.11,1.05.43,1.49,1.36,1.85,2.74,3.68,4.31,5.37,1.47,1.58,2.81,3.29,4.14,4.99,1.8,2.31,3.55,4.66,5.31,7,.16.22.3.45.43.69,1.8,3.07,3.73,6.06,5.79,8.97,1.07,1.51,2.04,3.08,2.97,4.68,1.91,3.32,3.8,6.66,5.63,10.03.72,1.33,1.72,2.42,2.74,3.5.29.31.76.46,1.17.63.82.35,1.18.78,1.18,1.47,0,.74-.54,1.49-1.26,1.75-3.32,1.19-6.84.47-9.19-2.11-1.05-1.14-1.78-2.48-2.32-3.94-1.15-3.09-2.33-6.16-3.51-9.24-.84-2.21-2.01-4.22-3.45-6.1-2.84-3.73-5.55-7.56-8.41-11.28-2.58-3.37-5.41-6.53-8.44-9.49-2.13-2.08-4.27-4.15-6.41-6.21-.19-.19-.41-.35-.69-.59-.41.16-.86.33-1.25.48-2.73-1.17-5.43-2.28-8.43-2.39-3.34-.12-6.67-.3-10-.46-2.17-.11-4.33-.03-6.49.11-2.07.14-4.14.22-6.21.3-3.21.13-6.28-.52-9.25-1.69-4.88-1.92-9.28-4.61-13.06-8.28-.42-.41-.84-.82-1.28-1.21-2.81-2.53-4.68-5.7-6.15-9.13-.25-.58-.42-1.19-.6-1.8-.08-.26-.12-.53-.12-.8-.03-1.51,1.11-2.46,2.56-2.08.78.2,1.54.5,2.28.84,2.59,1.17,5.17,2.35,7.74,3.58,2.73,1.3,5.44,2.65,8.15,3.98,1.18.58,2.33,1.19,3.53,1.72,1.19.53,2.41,1.03,3.65,1.43,2.57.84,5.16,1.63,7.75,2.41,2.33.7,4.69,1.33,7.03,2.01,3.38.99,6.75,2.01,10.12,3.02.21.06.43.1.87.19-.33-.39-.5-.64-.72-.83-1.55-1.31-3.06-2.68-4.69-3.88-5.1-3.72-10.19-7.46-15.59-10.75-1.85-1.13-3.68-2.29-5.51-3.43-2.57-1.6-4.96-3.46-7.34-5.31-2.81-2.19-5.57-4.44-8.35-6.67-.39-.31-.76-.64-1.29-.66-2.07-1.34-4.49-1.86-6.72-2.81-5.53-2.35-11.19-4.34-16.9-6.2-.39-.13-.76-.28-1.11.09-.2-.4-.47-.64-.89-.79-2.22-.78-4.49-1.04-6.79-.56-2.82.6-5.64,1.23-8.44,1.91-3.87.95-7.77,1.57-11.76,1.63-1.76.03-3.52.08-5.27.17-4.5.24-8.91-.28-13.3-1.21-4.27-.9-8.32-2.42-12.18-4.41-3.29-1.7-6.5-3.54-9.73-5.34-.63-.35-1.24-.75-1.81-1.18-.31-.24-.59-.57-.77-.91-.33-.63,0-1.32.7-1.46.57-.11,1.17-.17,1.75-.16,1.98.04,3.97.04,5.95.21,4.81.43,9.59,1.06,14.36,1.87,3.15.54,6.34.89,9.51,1.34,1.79.25,3.57.52,5.35.81,3.13.51,6.28.62,9.44.75.16,0,.32-.06.69-.13-.39-.19-.58-.29-.77-.36-.68-.25-1.35-.5-2.04-.73-5.88-1.94-11.6-4.29-17.08-7.17-.68-.36-1.39-.61-2.16-.75-4.88-.92-9.41-2.81-13.83-5-1.29-.64-2.49-1.46-3.71-2.22-2.75-1.72-5.47-3.52-8.44-4.85-2.35-1.05-4.71-2.08-7.09-3.05-3.18-1.3-6.34-2.63-9.27-4.43-2-1.23-3.83-2.7-5.61-4.24-.33-.29-.63-.66-.83-1.05-.35-.69-.08-1.49.6-1.86.31-.17.66-.28,1.01-.36,3-.66,5.96-.59,8.97.12,4.65,1.1,8.99,2.98,13.26,5.03,1.59.76,3.14,1.58,4.71,2.38,3.67,1.88,7.03,4.21,10.15,6.92,3.16,2.75,6.37,5.45,9.56,8.18.45.38.9.76,1.3,1.18.99,1.02,2.23,1.68,3.44,2.37.15.08.34.08.51.11.17.24.35.45.76.22-.27-.13-.49-.23-.71-.33-.34-.29-.67-.59-1.02-.87-3.02-2.38-5.88-4.93-8.3-7.92-.96-1.19-1.77-2.5-2.58-3.8-1.34-2.14-2.63-4.31-3.92-6.48-.98-1.63-1.78-3.35-2.45-5.12-.13-.33-.2-.7-.24-1.05-.06-.65.36-1.05.99-.95.31.05.62.13.91.25.96.4,1.94.76,2.84,1.26,2.13,1.18,4.25,2.39,6.33,3.65,1.97,1.19,3.75,2.66,5.43,4.23,2.57,2.41,4.98,4.97,7.21,7.69.83,1.01,1.73,1.96,2.55,2.98,1.07,1.33,2.08,2.72,3.14,4.07.89,1.14,1.76,2.29,2.7,3.38.73.85,1.54,1.64,2.33,2.44.64.64,1.33,1.22,1.94,1.88,1.06,1.12,2.33,1.79,3.84,2.11,1.28.27,2.52.68,3.78,1.06,2.07.62,4.14,1.27,6.21,1.9.26.08.52.13.78.19.12-.36-.17-.4-.33-.49-1.46-.81-2.95-1.57-4.39-2.4-1.13-.65-2.27-1.31-3.32-2.08-1.94-1.4-3.83-2.86-5.72-4.33-4.17-3.25-8.04-6.83-11.48-10.86-2.29-2.68-4.88-5.05-7.52-7.39-2.67-2.36-5.27-4.8-7.89-7.21-.43-.4-.85-.81-1.21-1.27-.31-.38-.58-.81-.77-1.26-.27-.66.1-1.32.8-1.42.48-.07.99-.05,1.48.02,1.7.24,3.37.66,4.96,1.32.87.36,1.75.74,2.58,1.2,2.89,1.58,5.78,3.16,8.64,4.79,2.59,1.48,4.91,3.36,7.22,5.24,3.7,3.03,7.19,6.3,10.4,9.85,2.12,2.34,4,4.88,5.85,7.44,1.64,2.27,3.28,4.53,4.95,6.77.73.98,1.51,1.91,2.3,2.84.32.37.72.68,1.11.99.35.28.75.47.92.95.06.17.31.31.5.41,1.56.82,3.18,1.5,4.9,1.93,2.93.75,5.84,1.56,8.76,2.34.41.11.83.19,1.26.29.02-.43-.28-.53-.48-.69-5.14-4.23-9.68-9.05-14.05-14.04-3.08-3.53-6.15-7.08-9.17-10.66-1.34-1.58-2.51-3.3-3.84-4.9-3.11-3.76-5.95-7.71-8.73-11.71-.95-1.37-1.83-2.79-2.74-4.19-.35-.53-.67-1.07-1.06-1.57-1.22-1.56-2.25-3.26-3.64-4.7-1.33-1.38-2.81-2.52-4.49-3.43-4.17-2.26-8.31-4.55-12.47-6.82-1.79-.98-3.46-2.13-4.99-3.47-3.58-3.11-7.06-6.33-9.86-10.18-1.88-2.59-3.7-5.23-5.4-7.94-2.28-3.63-4.42-7.35-6.62-11.02-.65-1.08-1.31-2.16-1.95-3.25-.18-.31-.36-.63-.48-.97-.2-.58.22-1.11.84-1.05.4.04.79.16,1.18.29,1.5.51,2.94,1.18,4.25,2.06,2.14,1.43,4.28,2.85,6.32,4.41,3.92,2.98,7.5,6.35,10.78,10.03,2.1,2.36,4.18,4.73,6.27,7.09.44.5.81,1.08,1.55,1.49-.53-.98-.99-1.83-1.44-2.69-1.84-3.52-3.64-7.06-5.51-10.56-2.04-3.82-3.77-7.8-5.71-11.67-.08-.16-.14-.33-.24-.49-1.54-2.61-2.72-5.4-4-8.13-.1-.2-.18-.42-.31-.6-1.53-2.25-2.48-4.81-3.77-7.18-.71-1.3-1.41-2.61-2.12-3.92-.18.02-.32,0-.43.05-2.44,1.13-5,1.78-7.66,2.1-1.54.19-3.06.03-4.56-.37-.97-.26-1.85-.71-2.56-1.45-.9-.95-.93-2.05-.05-3.02.33-.36.72-.68,1.16-1.08-.26-.15-.47-.27-.69-.39-.95-.52-1.91-1.02-2.83-1.59-.41-.26-.78-.63-1.06-1.02-.6-.85-.32-1.74.67-2.02.95-.27,1.94-.39,2.99-.6-.1-.16-.18-.34-.31-.49-.39-.49-.81-.97-1.2-1.46-.14-.17-.27-.36-.36-.57-.39-.87,0-1.66.92-1.87.35-.08.72-.08,1.07-.1.25-.02.49-.02.88-.04-.18-.26-.26-.41-.37-.54-.55-.66-1.15-1.27-1.64-1.97-.33-.47-.72-.76-1.24-.98-2.54-1.08-4.58-2.85-6.51-4.76-.45-.44-.65-.93-.4-1.59.18-.47.43-.77.89-.92,1.04-.33,2.1-.5,3.19-.5.64,0,1.23.1,1.69.66.17.21.55.26.85.34,1.37.37,2.63.95,3.76,1.81.72.55,1.34,1.19,1.86,1.95.7,1.01,1.07,2.07.69,3.26,1.58,1.09,3.13,2.16,4.68,3.23.02.01.08-.02.18-.06-.16-.28-.33-.54-.48-.81-.77-1.34-1.41-2.73-1.71-4.25-.1-.48-.3-.83-.65-1.14-1.04-.95-2.2-1.72-3.43-2.39-.75-.41-1.52-.8-2.31-1.13-3.51-1.48-6.73-3.47-9.94-5.49-.57-.36-1.14-.73-1.7-1.11-.26-.18-.52-.36-.74-.58-.3-.3-.33-.77-.11-1.13.27-.44.66-.76,1.18-.82.53-.06,1.08-.07,1.61-.05.44.02.88.11,1.49.19-.65-.9-1.22-1.67-1.79-2.46.95-1.31,2.14-1.65,3.6-1.31,2.24.53,4.44,1.18,6.55,2.14.85.39,1.79.58,2.7.86,0-.76-.01-.74-.47-.89-.98-.33-1.98-.62-2.94-1.02-.58-.23-1.12-.58-1.62-.95-.82-.61-1.27-1.4-.87-2.51-.29-.18-.56-.33-.81-.51-.96-.67-1.93-1.33-2.88-2.01-.65-.47-1.25-.98-2.01-1.33-1.09-.51-1.81-1.48-2.2-2.63-.29-.86.2-1.53,1.12-1.56.36-.01.73,0,1.07.09.96.24,1.91.52,2.87.77.29.08.54.34.94.13-.3-.69-.62-1.36-.88-2.06-.27-.71-.05-1.42.12-2.13-.77-.45-1.53-.86-2.25-1.31-1.81-1.12-3.48-2.43-4.83-4.09-.36-.45-.69-.96-.89-1.5-.33-.85.22-1.54,1.13-1.52.22,0,.46.02.67.09.6.19,1.19.39,1.83.11.14-.06.35.02.53.07.12.03.22.11.36.19-.13.16-.23.29-.36.45,1,.59,2.03,1.14,3,1.78.93.61,1.8,1.32,2.7,2,.19-.29-.03-.45-.11-.63-.59-1.23-1.03-2.5-1.36-3.82-.27-1.11-.38-2.23-.21-3.35.09-.57,0-1.06-.3-1.55-.19-.3-.38-.62-.5-.96-.37-1.02-1.07-1.75-1.98-2.32-.61-.38-1.21-.79-1.83-1.16-.3-.18-.65-.27-.94-.39-.36.23-.23.52-.21.77.02.22.11.44.18.65.76,2.35,1.99,4.44,3.55,6.34.37.45.77.87,1.36,1.06.28.09.37.38.26.67-.11.31-.38.42-.65.33-.42-.15-.87-.3-1.19-.59-.6-.53-1.19-1.11-1.67-1.76-1.31-1.79-2.47-3.67-3.04-5.85-.14-.52-.24-1.06-.23-1.6.02-1.05.78-1.66,1.82-1.43.56.12,1.09.41,1.62.65.4.18.77.41,1.29.69-.13-1.05-.38-1.89-.63-2.74-.26-.93-.18-1.86.07-2.77.13-.45.45-.78.9-.95.29-.1.59-.18,1-.3-.27-.28-.47-.5-.69-.7-1.36-1.27-2.54-2.69-3.45-4.32-.22-.39-.41-.81-.53-1.24-.19-.67.1-1.14.77-1.35.13-.04.27-.02.4-.05.12-.03.23-.08.44-.17-.46-.2-.83-.35-1.2-.51-1.29-.55-2.55-1.15-3.7-1.97-.77-.55-1.49-1.17-2.07-1.93-.37-.48-.61-1-.68-1.6-.12-1.01.4-1.6,1.39-1.48.62.07,1.25.23,1.82.49.78.35,1.53.78,2.25,1.24.95.61,1.86,1.28,2.79,1.91.4.28.82.54,1.36.68-.1-.14-.17-.31-.29-.43-.99-.98-2-1.96-3-2.93-1.75-1.71-3.32-3.56-4.56-5.67-.3-.51-.59-1.01-.64-1.62-.11-1.33.82-2.09,2.06-1.61.62.24,1.2.62,1.74,1.03,2.01,1.53,3.99,3.09,5.48,5.32.31-.62.33-1.18,0-1.6-.43-.53-.55-1.13-.64-1.75-.33-2.14-.67-4.28-.95-6.42-.23-1.72-.72-3.32-1.7-4.79-.93-1.38-1.71-2.86-2.51-4.33-.34-.63-.6-1.32-.81-2-.21-.69-.27-1.42-.05-2.13.34-1.13,1.46-1.74,2.52-.83.44.38.87.8,1.18,1.28.64.98,1.2,2.01,1.79,3.02.11.18.22.36.32.52.41-.09.29-.36.3-.56.07-1.26.03-2.53.5-3.78-.2-.42-.41-.87-.62-1.31-1.25-2.66-1.53-5.45-.95-8.32.14-.69.43-1.38.78-2,.53-.94,1.13-1.1,2.18-.77.13.04.25.12.37.16.12.04.26.04.42.07,0-.15.03-.28.01-.4-.31-2.03-.11-4.05.13-6.07.16-1.31.58-2.55,1.24-3.7.22-.39.49-.76.81-1.07.54-.51,1.27-.54,1.85-.07.31.25.58.57.8.9.56.89.93,1.86,1,2.92.09,1.39.14,2.79.17,4.19.02.72-.05,1.44-.08,2.16-.03.67-.06,1.35-.09,1.98.28.33.54.09.78.05,1.2-.2,2.18.43,2.41,1.6.09.44.1.9.05,1.34-.18,1.59-.62,3.11-1.57,4.41-.42.58-.6,1.15-.57,1.87.04,1.26-.03,2.52-.06,3.86.17.12.4.27.6.43.46.38.82.86.91,1.46.11.75.25,1.52.22,2.28-.05,1.26-.21,2.52-.34,3.77-.05.45-.06.86.09,1.32.16.49.16,1.07.11,1.6-.05.62-.23,1.24-.36,1.86-.07.34-.13.69-.23,1.19.32-.2.51-.3.68-.42.56-.38,1.1-.79,1.66-1.16.54-.36,1.16-.52,1.79-.56.98-.06,1.66.51,1.69,1.51.02.71-.07,1.44-.23,2.14-.41,1.78-1.3,3.36-2.28,4.88-.24.37-.45.75-.73,1.2.4-.03.67-.06.93-.06,1.61.02,2.39.83,2.37,2.45-.01,1.28-.54,2.36-1.34,3.32-.29.34-.62.65-.97,1.02,1.24.77,1.16,1.87.8,3.01-.43,1.38-1.02,2.7-1.73,3.96-.21.38-.39.78-.71,1.42.43-.24.61-.33.78-.44.3-.19.58-.43.9-.59,1.27-.65,2.35-.18,2.68,1.22.12.51.12,1.08.08,1.61-.08.95-.38,1.85-.82,2.7-.19.36-.35.72-.56,1.15.26,0,.43.02.6,0,.77-.06,1.34.31,1.67.93.34.62.65,1.31.78,2,.27,1.46.41,2.94.59,4.42.04.31.03.62.04.92,1.6.36,1.64.39,2.52,1.99.37.13.56-.2.82-.34,1.12-.59,2.12-.38,2.79.72.32.53.57,1.14.69,1.75.21,1.1.36,2.23.42,3.35.13,2.39,0,4.78-.5,7.14-.05.26-.1.53-.14.76.31.33.52.01.75-.04,1.27-.33,2.23.26,2.49,1.56.16.8.17,1.61.05,2.42-.21,1.35-.61,2.64-1.25,3.84-.28.52-.56,1.03-.85,1.57.19.5.38.99.63,1.63.21-.27.34-.42.46-.59.13-.18.25-.38.39-.55,1.04-1.25,2.44-1.04,3.06.48.14.33.23.69.3,1.04.4,1.96.46,3.93.07,5.91-.34,1.7-1.11,3.13-2.47,4.23-.1.08-.19.19-.34.33-.04,1.46-.03,2.98-.78,4.45.47-.06.44-.34.53-.52.32-.6.61-1.21.94-1.79.52-.92,1.39-1.39,2.37-1.68.69-.21,1.33-.07,1.9.4,1.15.95,1.75,2.14,1.71,3.65-.03,1.11-.32,2.15-.79,3.13-.8,1.67-1.64,3.32-2.53,4.94-.52.95-1.16,1.83-1.74,2.74-.24.37-.48.74-.7,1.09.18.27.35.15.49.07.52-.27,1.04-.54,1.55-.83.47-.27.96-.52,1.03-1.16,0-.08.06-.19.13-.23.58-.38.54-.97.41-1.69.37.15.66.2.83.35.48.44.55,1.02.41,1.62-.2.83-.41,1.66-.64,2.49-.08.3-.21.59-.32.89-.48,1.35-1.39,2.3-2.68,2.9-.74.34-1.49.65-2.23.98-.41.18-.83.35-1.24.54-.81.36-1.44.91-1.79,1.87.53,1.63,1,3.36,1.9,4.95.18.31.39.62.51.95.93,2.56,2.44,4.82,3.72,7.2.51.95.97,1.94,1.43,2.91.6,1.26,1.17,2.53,1.76,3.79.46.98.93,1.96,1.42,2.92.5.96,1.04,1.9,1.56,2.84.15.28.32.55.44.84,1,2.39,2.42,4.53,3.96,6.6.65.87,1.23,1.77,1.74,2.74,1.53,2.91,3.09,5.81,4.64,8.72,1,1.87,2.13,3.66,3.37,5.39.81,1.14,1.56,2.32,2.37,3.46,1.81,2.52,3.54,5.1,5.48,7.55.07-.11.17-.19.16-.25-.03-.22-.07-.45-.16-.65-.97-2.33-1.92-4.67-2.92-6.99-1.24-2.87-2.28-5.8-2.91-8.85-.68-3.32-1.57-6.58-2.38-9.86-.66-2.67-1.33-5.34-2.08-7.98-1.07-3.73-2.24-7.43-3.33-11.15-.9-3.07-1.75-6.16-2.6-9.25-.2-.74-.31-1.5-.42-2.26-.08-.54-.02-1.08.27-1.57.39-.65,1.07-.93,1.73-.57.55.29,1.07.68,1.51,1.11,1.44,1.44,2.73,3,3.84,4.71,2.83,4.36,5.3,8.92,7.35,13.7.82,1.9,1.45,3.89,2.12,5.85.67,1.96,1.28,3.95,1.92,5.92.03.06.05.12.06.16-.02-.05-.05-.12-.09-.19ZM130.68,314.71s.07-.08.1-.12c-.04.05-.08.1-.12.15.04.02.08.02.11.05.02.02,0,.06,0,.1-.03-.06-.07-.11-.1-.17ZM130.59,312.67c.14-.16.27-.31.16-.54.04-.3.13-.6.13-.91-.01-5.96.62-11.85,1.91-17.68,1.01-4.59,2.25-9.1,4.13-13.41,1.26-2.89,2.64-5.72,3.98-8.57,1.31-2.77,2.7-5.5,4.35-8.08.53-.83.96-1.73,1.42-2.61.1-.19.23-.4-.02-.58.55-.19.61-.3.52-.83.49-.03.51-.46.65-.78.28-.37.65-.69.58-1.22.78-.6,1.21-1.43,1.61-2.46-.79.72-1.22,1.42-1.58,2.47-.44.2-.58.61-.69,1.03-.01.05.08.13.12.2-.5.02-.5.47-.65.78-.17.28-.34.55-.51.83-.13.18-.28.35-.4.54-1.31,2.1-2.63,4.19-3.9,6.32-.95,1.58-1.88,3.18-2.7,4.83-1.15,2.3-2.22,4.63-3.25,6.98-.67,1.52-1.31,3.08-1.78,4.67-.55,1.85-1.09,3.69-1.89,5.47-1.1,2.42-1.82,4.99-2.2,7.64-.24,1.69-.45,3.39-.59,5.1-.21,2.61-.32,5.21.33,7.79.21.83.34,1.67.51,2.5-.08.18-.15.37-.23.55.13,0,.26.01.09.17-.02-.07-.04-.13-.07-.2ZM28.64,229.66c-.34.12-.68.24-1.02.36-1.25-.55-2.5-.49-3.76-.05-.13.05-.37.07-.27.39,1,.12,2.02.09,3.03-.08.34-.06.67-.19,1.01-.29.2.17.4.09.59-.03.15-.09.28-.2.42-.29.13.1.19.42.43.13-.14-.04-.29-.08-.43-.13ZM21.84,212.28c-.04-.09-.07-.18-.11-.27l.09.27c.54.35,1.07.7,1.67,1.09.05-.21.09-.37.14-.58-.5-.22-.97-.45-1.46-.64-.08-.03-.22.08-.34.13ZM12.12,11.35c0,.11,0,.21-.01.32h.05c-.01-.1-.02-.21-.03-.31-.19-.11-.4-.2-.56-.34-.83-.78-1.8-1.32-2.84-1.77-.12-.05-.29-.24-.48.05,1.07.95,2.27,1.69,3.53,2.35.14-.13.24-.22.33-.3ZM20.84,204.14c.09.08.17.2.28.23.09.03.21-.04.31-.07-.08-.08-.15-.22-.24-.23-.11-.02-.24.07-.36.11-1.36-.93-2.82-1.7-4.34-2.34-.61-.25-1.3-.32-1.96-.46-.16-.03-.32,0-.54-.01.09.15.11.24.17.28,1.97,1.19,4.07,2.05,6.31,2.59.11.03.25-.06.37-.09ZM17.94,191.7c0-1.28,0-2.56,0-3.71-.85-.48-1.59-.91-2.34-1.3-.63-.34-1.27-.66-1.93-.93-.22-.09-.5-.02-.72-.02-.26.59-.04,1.05.18,1.49.74,1.52,1.77,2.8,3.1,3.85.42.33.84.62,1.43.46.09-.03.23.12.35.19q-.08.33.15.49c-.08-.2-.14-.35-.2-.51ZM10.5,137.38s.12-.02.12-.04c.25-1.25.75-2.48.03-3.76-.21-.37-.23-.87-.28-1.31-.09-.71-.18-1.43-.18-2.15,0-1.11-.28-2.14-.77-3.12-.73-1.45-1.45-2.9-2.22-4.33-.34-.63-.76-1.22-1.2-1.8-.2-.26-.43-.59-.92-.57-.29.5-.23,1.03-.06,1.54.23.68.48,1.37.83,1.99.93,1.7,1.91,3.37,2.89,5.04.49.83.81,1.71.96,2.65.1.62.19,1.25.28,1.87.18,1.34.36,2.67.55,4.01,0,.09-.01.17-.02.26.03-.02.06-.03.09-.05-.04-.07-.08-.15-.12-.22ZM19.6,208.84c.02.1.05.19.07.29.02-.03.07-.07.07-.07-.05-.07-.11-.13-.16-.19-3.16-2.78-6.92-4.34-10.95-5.35-.44-.11-.89-.16-1.33-.22-.16-.02-.37-.08-.46.26,4.25,2.9,8.77,5.35,13.7,7.55-.59-.92-1.63-1.2-1.82-2.16.31-.16.65.25.89-.11ZM69.99,338.57s0,.05.02,0c-.54-.66-1.12-1.3-1.63-1.98-2.02-2.77-4.21-5.4-6.41-8.02-2.12-2.52-4.31-4.97-6.69-7.25-1.86-1.79-3.83-3.43-6.04-4.76-1.97-1.19-3.98-2.32-5.98-3.45-.59-.33-1.22-.59-1.84-.86-.19-.08-.41-.22-.6.01,0,.09-.03.19,0,.26.62,1.6,1.39,3.13,2.27,4.61,1.3,2.17,2.62,4.32,3.91,6.49,1.14,1.9,2.36,3.74,3.94,5.31,1.35,1.33,2.69,2.67,4.11,3.92,1.22,1.07,2.5,2.08,3.84,2.99,2.13,1.44,4.31,2.8,6.51,4.13.96.58,2.01,1.03,3.05,1.44,1.22.48,2.47.86,3.71,1.27.19.06.4.08.63.12,0-.37-.26-.43-.42-.54-.85-.6-1.72-1.16-2.56-1.77-5.42-3.94-10.18-8.61-14.72-13.52-1.47-1.59-2.87-3.25-4.02-5.09-.62-.99-1.09-2.07-1.6-3.12-.14-.29-.21-.63-.01-.92.89,1.24,1.73,2.46,2.63,3.64,2.27,2.98,4.83,5.71,7.53,8.31,2.92,2.82,5.83,5.65,9.03,8.16.32.25.64.5.98.71.07.04.22-.05.34-.08ZM88.01,344.64c.06.05.12.1.18.16,0-.06,0-.11.01-.17-.07.02-.14.04-.21.06-.05-.57-.54-.81-.89-1.14-2.45-2.33-4.82-4.75-6.96-7.37-3.8-4.66-7.95-8.98-12.64-12.75-3.23-2.6-6.37-5.32-10-7.38-.07-.04-.07-.18-.13-.37,1.67.53,3.09,1.3,4.45,2.18,6.63,4.28,12.63,9.3,17.77,15.3,2.76,3.22,5.51,6.44,8.6,9.35,1.64,1.55,3.26,3.12,5.08,4.46.18.13.39.21.59.32-2.27-2.81-4.2-5.8-6.29-8.67-2.47-3.4-5.13-6.63-8.12-9.58-3.57-3.53-7.31-6.85-11.38-9.78-4-2.88-8.41-5.08-12.76-7.37-1.57-.83-3.28-1.27-5.01-1.63-.48-.1-.96-.24-1.52-.07.09.19.13.37.24.49.39.44.78.87,1.22,1.27,2.57,2.34,5.11,4.7,7.73,6.98,3.07,2.66,6.01,5.45,8.68,8.51,1.24,1.42,2.59,2.76,3.93,4.1,4.11,4.08,8.77,7.5,13.39,10.95,1.22.91,2.57,1.64,4.01,2.19ZM64.01,296.51c-.02.08-.05.16-.04.23,0,.04.1.06.15.09-.01-.03-.02-.07-.03-.1-.03-.07-.06-.14-.09-.21-.28-.22-.59-.41-.84-.66-1.2-1.16-2.51-2.19-3.84-3.2-1.22-.92-2.43-1.87-3.58-2.88-4.7-4.1-9.08-8.49-12.94-13.4-1.84-2.34-3.78-4.6-5.21-7.23-.26-.48-.5-.96-.74-1.44-.24-.5-.48-1-.79-1.67.76.29,1.04.81,1.37,1.27.5.69.96,1.42,1.48,2.1,3.65,4.7,7.5,9.24,11.73,13.43,2.82,2.79,5.68,5.55,8.85,7.94,1.94,1.47,3.84,2.99,5.58,4.7.58.57,1.15,1.14,1.74,1.7.21.2.46.36.88.69-.18-.39-.24-.56-.34-.7-1.85-2.67-3.89-5.2-6.02-7.64-4.94-5.68-9.9-11.33-14.89-16.97-4.47-5.05-9.5-9.48-15.07-13.29-1.34-.92-2.71-1.79-4.2-2.46-.27-.12-.57-.18-1.02-.31.39.65.7,1.14.99,1.63,1.57,2.64,3.09,5.3,4.71,7.9,1.73,2.8,3.5,5.57,5.34,8.3,1.23,1.83,2.55,3.61,3.92,5.33,2.3,2.9,5.04,5.4,7.79,7.87,1.41,1.27,2.91,2.43,4.56,3.38,3.21,1.84,6.41,3.69,9.62,5.53.19.11.4.22.61.27.09.02.21-.13.32-.19ZM76.31,354.57c.19-.11.37-.22.56-.33-.04-.04-.08-.09-.12-.13-.15.15-.3.31-.45.46l-.19-.4c-.92.02-1.87.05-2.81.07-2.71.07-5.41.06-8.1-.25-7.08-.82-13.89-2.68-20.57-5.1-1.32-.48-2.55-1.15-3.7-1.94-.13-.09-.35-.14-.26-.48.37.09.75.18,1.12.29,3.68,1.08,7.34,2.24,11.03,3.25,7.57,2.08,15.28,3.17,23.15,2.55,4.31-.34,8.61-.81,12.91-1.23.04,0,.07-.12.13-.22-.31-.11-.6-.23-.89-.33-1.72-.53-3.45-1.07-5.18-1.58-.6-.18-1.23-.3-1.85-.39-2.9-.42-5.83-.56-8.76-.68-2.75-.11-5.49-.33-8.21-.77-2.05-.33-4.09-.68-6.15-.92-3-.35-5.99-.77-8.96-1.33-4.61-.87-9.27-1.44-13.94-1.89-1.84-.18-3.69-.16-5.54-.21-.27,0-.63-.11-.83.32.51.44,1.09.78,1.68,1.1,2.93,1.6,5.85,3.21,8.79,4.79,6.21,3.34,12.87,5.14,19.88,5.74,2.34.2,4.68.14,7.03.05,3.24-.12,6.49-.12,9.72-.49.17-.02.34.04.51.06ZM171.39,386.11c.07.08.14.16.2.24.02-.04.04-.07.05-.11-.09-.03-.18-.07-.27-.1-.17-.2-.31-.44-.5-.61-1.22-1.07-2.44-2.15-3.67-3.2-1.62-1.38-3.06-2.93-4.32-4.65-2.27-3.1-4.32-6.33-6.16-9.7-2.56-4.69-4.62-9.59-6.15-14.7-.33-1.12-.52-2.28-.76-3.43-.02-.1.07-.22.16-.53.2.49.33.8.46,1.12.14.33.26.67.4,1,.68,1.57,1.4,3.13,2.05,4.72,2.81,6.82,6.26,13.3,10.5,19.35,1.14,1.63,2.33,3.22,3.8,4.56,2.03,1.86,4.1,3.67,6.16,5.49.14.12.26.39.59.18-.22-2.1-1.13-3.96-2.31-5.67-1.03-1.48-2.2-2.85-3.3-4.29-.87-1.15-1.8-2.26-2.56-3.49-1.93-3.16-3.67-6.42-5.13-9.83-2.25-5.27-4.83-10.39-7.64-15.39-1.05-1.86-2.43-3.47-3.93-4.97-.22-.22-.47-.43-.72-.61-.76-.54-1.11-.46-1.65.35-.33.5-.53,1.05-.57,1.64-.06.81-.09,1.62-.06,2.43.06,1.4.33,2.77.65,4.14.5,2.11,1,4.2,1.81,6.23.97,2.43,1.94,4.86,2.67,7.38.62,2.12,1.26,4.24,1.9,6.35.43,1.42.87,2.85,1.61,4.16.33.59.68,1.17,1.04,1.75.35.57.62,1.27,1.12,1.66.53.41.87,1,1.44,1.36,1.69,1.04,3.29,2.25,5.05,3.13,2.1,1.05,4.18,2.13,6.21,3.3.43.25.87.49,1.31.7.14.07.33.04.5.05ZM132.85,313.53c.12-.11.3-.2.35-.33.28-.86.55-1.72.8-2.59,1.16-3.96,2.72-7.75,5-11.21,1.46-2.22,2.93-4.44,4.53-6.57,2.12-2.81,4.13-5.69,6.02-8.66,1.72-2.7,3.47-5.38,5.27-8.03,1.35-1.98,2.91-3.79,4.64-5.45.15-.14.33-.25.5-.38-.07.45-.27.8-.49,1.13-2.33,3.6-4.7,7.17-6.97,10.8-2.58,4.14-5.19,8.24-8.17,12.11-1.98,2.57-3.75,5.3-5.36,8.13-1.62,2.84-2.72,5.89-3.68,9-.05.17-.23.41.13.58.15-.22.3-.44.45-.65.95-1.31,1.86-2.67,2.87-3.93,2.51-3.14,5.28-6.04,8.12-8.87,1.89-1.89,3.62-3.91,5.01-6.19,2.3-3.78,4.57-7.57,6.8-11.39,1.23-2.1,2.38-4.25,3.48-6.43,1.6-3.19,2.44-6.59,2.63-10.15.04-.71-.03-1.44-.11-2.15-.03-.28-.24-.54-.42-.93-.59.54-1.13.95-1.57,1.44-.96,1.08-1.9,2.18-2.79,3.31-2.02,2.55-4.22,4.93-6.52,7.22-1.78,1.78-3.56,3.59-5.21,5.49-5.35,6.15-4.84,5.41-8.24,11.67-1.66,3.06-3.25,6.14-4.34,9.46-.51,1.54-1.02,3.09-1.49,4.64-.79,2.6-1.2,5.27-1.28,7.99,0,.31.05.62.08.94-.02.07-.04.15-.06.22.05-.02.11-.04.16-.05-.05-.06-.1-.12-.14-.18ZM130.05,320.52c-.33.15-.23.46-.23.71.07,4.1.16,8.21.79,12.27.16,1.02.45,2.03.55,3.06.37,4.07,1.82,7.9,2.68,11.86.03.13.09.25.13.38.44,1.37.85,2.76,1.33,4.12.63,1.78,1.19,3.6,1.99,5.31,1.36,2.91,2.36,5.96,3.57,8.92.12.29.26.6-.02.88-.18.17-.49-.04-.76-.56-.5-.96-.97-1.93-1.47-2.92-.77-.15-1.3-.61-1.72-1.22-.46-.66-1.01-1.28-1.42-1.97-1.48-2.48-3.23-4.78-4.89-7.13-1.06-1.51-2.19-2.97-3.31-4.44-.74-.97-1.56-1.87-2.25-2.87-1.6-2.29-3.15-4.62-4.71-6.94-.33-.49-.62-.99-.93-1.49-.8-1.31-1.56-2.63-2.39-3.92-1.4-2.16-2.81-4.3-3.86-6.65-.62-1.4-1.25-2.81-2.03-4.12-.6-1.01-1.13-2.05-1.61-3.12-.58-1.27-1.16-2.55-1.71-3.83-.7-1.66-1.57-3.25-1.98-5.03-.05-.22-.16-.42-.25-.63-1.2-2.82-2.55-5.57-3.5-8.5-.55-1.71-1.34-3.34-1.8-5.09-.58-2.18-1.26-4.32-1.91-6.48-.35-1.17-.69-2.34-1.07-3.49-.59-1.8-1.11-3.62-1.5-5.47-.07-.35-.16-.7-.24-1.05-.55-2.46-1.12-4.92-1.65-7.38-.23-1.06-.33-2.14-.54-3.2-.37-1.82-.56-3.65-.66-5.5-.03-.54-.06-1.09-.17-1.61-.63-2.96-.88-5.97-1.23-8.97-.21-1.74-.4-3.49-.62-5.23-.37-2.86-.77-5.72-1.15-8.58-.31-2.37-.47-4.74-.94-7.1-.52-2.65-.74-5.35-1.07-8.04-.12-.98-.23-1.97-.3-2.96-.13-1.88-.59-3.73-.52-5.62,0-.13-.04-.27-.09-.39-.21-.48-.14-.97-.13-1.47.03-1.26.13-2.53.05-3.78-.14-2.29-.34-4.59-.61-6.87-.19-1.61-.51-3.2-.79-4.8-.17-.98-.4-1.94-.54-2.92-.32-2.28-.6-4.56-.91-6.84-.2-1.43-.38-2.86-.68-4.27-.32-1.5-.6-3-.73-4.53-.15-1.89-.31-3.77-.47-5.66-.03-.36-.07-.72-.15-1.07-.33-1.49-.67-2.99-1.02-4.48-.14-.61-.38-1.21-.49-1.82-.5-2.7-.92-5.41-1.45-8.11-.3-1.5-.65-3-1.15-4.44-.61-1.76-.94-3.57-1.24-5.39-.08-.49-.13-.98-.23-1.47-.26-1.27-.84-2.47-.89-3.8-.01-.34-.22-.68-.35-1.02-.06-.17-.17-.32-.22-.49-.32-1.17-.59-2.36-.97-3.51-.22-.68-.59-1.31-.95-1.93-.11-.19-.41-.26-.72-.43-.12.39-.3.68-.28.97.03.67.08,1.36.26,2,.43,1.47.9,2.93,1.42,4.37,1.22,3.4,2.1,6.9,2.97,10.4.83,3.32,1.56,6.67,2.32,10.02,1.22,5.37,2.08,10.8,2.82,16.25.43,3.17.69,6.36,1.01,9.55.19,1.88.32,3.77.5,5.66.21,2.24.43,4.49.68,6.73.37,3.27.8,6.53,1.15,9.81.86,8.02,1.68,16.05,2.53,24.08.29,2.73.66,5.46.97,8.19.48,4.21.88,8.43,1.43,12.63.78,5.95,1.79,11.86,3,17.73.82,3.98,1.68,7.94,2.85,11.83,1.09,3.63,2.13,7.27,3.19,10.91.97,3.29,2.05,6.54,3.27,9.75,1.1,2.87,2.28,5.7,3.58,8.48,2.08,4.46,4.11,8.94,6.23,13.38,1.11,2.32,2.34,4.58,3.54,6.86.53,1,1.05,2,1.67,2.94,2.37,3.62,4.76,7.24,7.17,10.83.57.85,1.27,1.63,1.96,2.39.54.6,1.17,1.12,1.73,1.71,1.57,1.63,2.96,3.4,4.26,5.25.47.67,1.02,1.24,1.58,1.55.42.06.35-.42.68-.26.27.56.06,1.04-.3,1.43q.57.86.6,2.47c-.34.32-.75.28-1.11.09-.39-.21-.73-.51-1.09-.79-.53-.41-1.05-.85-1.59-1.25-.76-.57-1.55-1.09-2.3-1.67-4.09-3.12-7.93-6.53-11.86-9.85-1.58-1.34-3.06-2.8-4.66-4.12-2.27-1.87-4.25-4.03-6.34-6.09-.48-.47-.92-.99-1.36-1.5-2.26-2.57-4.52-5.15-6.78-7.72-1.76-2-3.57-3.95-5.27-5.99-1.88-2.25-3.68-4.56-5.75-6.64-.32-.32-.61-.67-.87-1.03-1.22-1.68-2.44-3.36-3.64-5.05-2.64-3.71-5.27-7.42-7.9-11.14-1.38-1.95-2.76-3.9-4.13-5.86-.7-1-1.37-2.01-2.07-3-1.25-1.77-2.52-3.51-3.76-5.29-1.09-1.55-2.14-3.12-3.21-4.69-.61-.89-1.26-1.76-1.78-2.71-1.61-2.92-3.16-5.88-4.75-8.81-.8-1.46-1.54-2.97-2.49-4.34-1.7-2.45-3.41-4.87-4.51-7.67-.07-.17-.16-.32-.26-.47-1.38-2.23-2.34-4.68-3.48-7.03-.94-1.95-1.81-3.93-2.76-5.87-.55-1.13-1.24-2.2-1.8-3.33-.65-1.29-1.17-2.64-1.84-3.92-.84-1.61-1.49-3.28-1.96-5.03-.08-.29-.23-.61-.45-.8-.38-.32-.4-.66-.28-1.08.08-.3.1-.62.14-.91.18-.1.38-.14.48-.27.77-1.02,1.34-2.14,1.59-3.4.21-1.07-.18-1.96-1-2.65-.18-.15-.46-.18-.7-.27-.41.66-.52,1.47-1.35,1.7-.12.03-.21.28-.27.44-.37,1-.8,1.99-.37,3.14-.68-.02-1.35-.44-1.82.4.61,1.01.96,2.25,2.34,2.9-.48.38-.28.71-.07,1.08,1.32,2.36,2.65,4.72,3.89,7.12.52,1,1.07,1.98,1.68,2.93.26.42.5.85.73,1.29,1.17,2.23,2.09,4.59,3.31,6.8,1.92,3.48,3.45,7.15,5.32,10.65,2.27,4.26,4.52,8.53,6.73,12.82.89,1.73,1.95,3.35,3.07,4.93.97,1.36,2.03,2.66,2.9,4.08,1.62,2.61,3.37,5.13,5.17,7.61,1.3,1.79,2.64,3.54,3.99,5.29.44.57.99,1.04,1.01,1.84,0,.2.21.39.31.59.75,1.44,1.62,2.81,2.57,4.14.73,1.03,1.44,2.07,2.15,3.12,1.21,1.8,2.36,3.63,3.6,5.4,2.42,3.43,4.87,6.83,7.57,10.04,1.48,1.76,2.81,3.64,4.28,5.41,1.96,2.35,3.99,4.66,6.01,6.96,2.38,2.71,4.75,5.43,7.18,8.1,2.15,2.37,4.4,4.65,6.82,6.76,2.34,2.05,4.71,4.06,7.05,6.12.52.46,1.09.76,1.64.85.14.37.17.65.33.83.33.37.71.69,1.09,1.01,3.77,3.16,7.57,6.27,11.46,9.28,3.61,2.79,7.32,5.41,11.22,7.78,2.27,1.38,4.53,2.79,6.75,4.26,2.07,1.37,4.08,2.83,6.11,4.25,2.62,1.84,5.24,3.68,7.66,5.79,1.9,1.66,3.78,3.35,5.69,5,.61.53,1.3.96,1.95,1.44.36.27.84.46,1.06.82.55.87,1.36,1.44,2.1,2.08,2.82,2.46,5.43,5.14,8.1,7.77,2.7,2.66,5.27,5.45,7.58,8.45,3.57,4.65,7.03,9.38,10.5,14.1.58.79,1.07,1.68,1.48,2.57.55,1.18.98,2.43,1.47,3.64,1.12,2.76,2.25,5.51,3.13,8.36.11.34.29.66.46.98.16.31.42.46.77.46.22,0,.45.02.67-.01,1.04-.16,2.07-.09,3.1.02.26.03.53.02.95.03-.38-.6-.71-1.06-1-1.55-2.21-3.88-4.18-7.89-6.66-11.62-1.07-1.61-2.14-3.23-3.21-4.84-.65-.97-1.33-1.93-1.98-2.91-1.46-2.22-2.69-4.59-4.33-6.7-1.21-1.57-2.4-3.16-3.61-4.73-.55-.71-1.13-1.4-1.71-2.09-1.09-1.32-2.12-2.69-3.3-3.92-1.86-1.93-3.41-4.08-4.88-6.3-1.44-2.19-2.62-4.52-3.77-6.88-1.41-2.91-2.31-5.98-2.74-9.16-.5-3.67-.5-7.37-.42-11.07.03-1.62.13-3.24.22-4.87.16-2.8-.03-5.59-.4-8.37-.82-6.13-2.14-12.16-3.41-18.21-.36-1.72-.81-3.42-1.21-5.13-.06-.25-.2-.52.16-.74.19.4.41.78.55,1.19,1.04,2.93,2.01,5.89,2.82,8.9,1.27,4.71,2.23,9.48,2.83,14.32.24,1.97.39,3.95.34,5.94-.09,3.79-.43,7.56-.34,11.36.05,2.12.09,4.24.34,6.34.31,2.66.98,5.23,2.1,7.67.57,1.23,1.17,2.44,1.78,3.65.08.16.1.43.44.42-.18-.91-.34-1.78-.51-2.66-.08-.44-.2-.89,0-1.33.16-.36.09-.7-.03-1.05-.82-2.51-1.1-5.1-1.11-7.73,0-2.17.18-4.32.26-6.48.12-3.07.55-6.11.91-9.15.09-.8.25-1.61.45-2.39.9-3.54.86-7.15.88-10.76,0-.22-.04-.45-.06-.67-.37-3.25-1.12-6.4-2.4-9.41-1.35-3.2-2.75-6.38-4.13-9.57-.07-.17-.15-.33-.23-.49-.78-1.65-1.81-3.12-3.13-4.38-1.3-1.25-2.64-2.46-3.97-3.68-.15-.13-.36-.19-.61-.31-.14.38-.28.66-.35.96-.09.44-.18.89-.19,1.34-.02,1.31-.04,2.62.03,3.92.19,3.47.47,6.93.64,10.39.19,3.93.54,7.83,1.3,11.69.44,2.26.91,4.51,1.46,6.74,1.06,4.37,1.11,8.84,1.5,13.28.02.18-.01.36,0,.54.1,2.76.36,5.49,1.6,8.03.23.48.29,1.04.44,1.56-.38.6-.02,1.1.19,1.64.34.89.74,1.74,1.2,2.57.44.78.77,1.63,1.13,2.46.09.2.11.44.13.66.02.23-.03.44-.42.42-.3-.54-.58-1.16-1.34-1.34-.2-.05-.39-.37-.49-.61-.14-.32-.19-.68-.3-1.12-.83-.51-1.67-1.13-2.6-1.58-3.4-1.67-6.64-3.67-10.12-5.18-.66-.29-1.29-.65-1.9-1.03-1-.61-1.99-1.24-2.97-1.89-1.24-.83-2.44-1.73-3.22-3.04-.37-.61-.9-.97-1.48-1.33-.99-.61-2.03-1.2-2.53-2.36-.05-.12-.18-.2-.27-.3-1.21-1.52-2.45-3-3.62-4.55-2.76-3.69-5.25-7.56-7.17-11.77-.86-1.89-1.75-3.77-2.63-5.65-1-2.13-1.82-4.33-2.48-6.58-1.42-4.81-2.34-9.73-2.83-14.72-.1-1.03-.13-2.08-.33-3.09-.24-1.28-.38-2.55-.37-3.85,0-.33-.06-.62-.29-.86-.56-.58-.77-1.31-.86-2.09-.03-.06-.07-.13-.1-.19.03.07.07.14.1.21ZM128.36,310.1c.08-.21.17-.32.17-.44,0-.72.03-1.45-.06-2.16-.3-2.24-.8-4.43-1.46-6.59-.86-2.85-1.75-5.69-2.54-8.55-.83-3-1.55-6.02-2.34-9.03-.72-2.75-1.5-5.48-2.22-8.23-.85-3.23-1.75-6.44-2.96-9.55-.55-1.43-1.13-2.85-1.68-4.28-.96-2.48-1.82-5.01-2.89-7.44-1.85-4.21-3.82-8.37-5.77-12.54-.4-.85-.93-1.65-1.42-2.46-.08-.13-.13-.36-.47-.24-.03.22-.1.47-.11.73-.05,2.07-.15,4.15-.1,6.22.08,3.2.23,6.4.4,9.59.21,4.05.5,8.1.96,12.13.22,1.89.63,3.74,1.3,5.52,1.43,3.8,2.98,7.56,4.77,11.2.94,1.9,1.88,3.8,3.03,5.59,1.08,1.67,2.07,3.39,3.01,5.13,1.2,2.22,2.32,4.49,3.47,6.73.45.88.92,1.76,1.38,2.64.79,1.52,1.62,3.02,2.34,4.57.79,1.72,1.48,3.49,2.22,5.23.11.25.27.48.4.72-.23-1.55-.58-3.03-.95-4.51-.94-3.78-2.58-7.32-4.02-10.91-1.91-4.77-4.08-9.44-6.06-14.19-.94-2.25-1.74-4.55-2.51-6.86-1.22-3.64-2.11-7.36-2.95-11.1-1.03-4.58-1.79-9.2-2.04-13.9-.05-.85-.04-1.71-.01-2.57.02-.52.1-1.04.41-1.51.09.07.16.1.15.12-.15,1.45.1,2.87.29,4.3,1,7.39,2.61,14.65,4.83,21.76,1.55,4.95,3.43,9.79,5.56,14.52,1.81,4.03,3.6,8.08,5.1,12.24.9,2.5,1.94,4.96,2.51,7.57.04.16.14.31.25.55ZM133.38,326.17c.15-.37.31-.73.45-1.11.8-2.23,1.96-4.27,3.54-6.04,1.83-2.05,3.7-4.08,5.88-5.77,2.22-1.71,4.25-3.63,6.21-5.63,4.48-4.57,8.68-9.39,12.93-14.17.02-.02.09,0,.2.01-.09.79-.52,1.41-.95,2.01-1.43,1.97-2.88,3.92-4.51,5.74-1.35,1.51-2.67,3.06-4.03,4.56-2.37,2.6-4.79,5.16-7.53,7.37-2.19,1.75-4.23,3.64-6.2,5.62-2.45,2.46-4.09,5.36-5.15,8.63-.04.12-.02.26-.04.46.64-.5,1.2-1,1.83-1.41,2.34-1.53,4.75-2.96,7.05-4.54,2.86-1.97,5.57-4.14,8.19-6.42,2.01-1.75,3.76-3.76,5.6-5.68,2.39-2.49,4.38-5.26,6.08-8.25,2.06-3.61,3.82-7.37,5.2-11.29.55-1.57.99-3.19,1.41-4.8.18-.69.2-1.43.24-2.14.01-.22-.15-.46-.27-.79-.52.31-.97.52-1.36.81-1.51,1.15-3,2.31-4.49,3.48-2.98,2.34-5.9,4.74-8.46,7.56-1.24,1.37-2.48,2.74-3.78,4.05-1.81,1.82-3.61,3.67-5.54,5.35-2.53,2.2-4.83,4.6-6.84,7.27-1.44,1.91-2.73,3.93-3.57,6.19-.78,2.07-1.51,4.15-2.27,6.23-.33.89-.22,1.75.2,2.7ZM89.37,207.39l.23.1c.21-.49.43-.98.64-1.47,1.47-3.5,3.02-6.96,4.94-10.23,3.41-5.85,7.13-11.49,11.29-16.84,1.83-2.35,3.87-4.52,6.07-6.52.13-.12.32-.19.48-.28-.12.45-.34.78-.58,1.09-1.47,1.94-3,3.84-4.41,5.82-3.56,5-6.88,10.15-10.05,15.41-2.1,3.48-3.9,7.12-5.55,10.83-.09.2-.3.42-.05.74.31-.42.57-.78.85-1.13,2.01-2.55,4-5.11,6.05-7.63,1.51-1.85,3.13-3.61,4.67-5.43.96-1.13,1.91-2.28,2.8-3.47,3.68-4.91,7.15-9.96,10.51-15.09,1.36-2.08,2.58-4.24,3.69-6.46.28-.56.53-1.15.71-1.75.26-.86,0-1.2-.87-1.22-.22,0-.45.02-.67.04-1.19.12-2.3.5-3.32,1.09-1.44.84-2.89,1.67-4.27,2.61-3.53,2.42-6.93,5.03-10.23,7.76-2.28,1.88-4.19,4.08-5.68,6.65-1.29,2.23-2.3,4.59-3.34,6.95-1.1,2.49-1.81,5.09-2.21,7.79-.45,3.03-.96,6.06-1.44,9.09-.08.53-.18,1.06-.28,1.59ZM170.65,398.1c-.23-.18-.45-.39-.71-.52-.32-.16-.67-.27-1.01-.39-5.54-1.96-11.15-3.64-16.83-5.13-1.22-.32-2.43-.7-3.63-1.08-2.67-.84-5.33-1.7-8-2.53-1.43-.44-2.81-.98-4.15-1.65-1.13-.56-2.26-1.13-3.39-1.7-2.58-1.29-5.15-2.61-7.75-3.87-2.76-1.34-5.54-2.63-8.33-3.92-.61-.28-1.25-.51-1.9-.7-.49-.15-.91.2-.88.72.01.31.1.62.2.92.94,2.81,2.36,5.37,4.24,7.65.94,1.14,2.05,2.15,3.12,3.19,3.72,3.59,8.04,6.23,12.84,8.12,3.07,1.2,6.23,1.79,9.53,1.57,2.2-.15,4.41-.24,6.62-.36,3.7-.2,7.39.09,11.08.31,2.41.15,4.83.26,7.23.65-.16-.17-.33-.27-.52-.34-2.75-1.04-5.58-1.8-8.52-2.11-2.87-.3-5.74-.59-8.62-.84-3.62-.32-7.13-1.07-10.57-2.24-3.51-1.2-6.87-2.75-10.16-4.45-3.9-2.02-7.51-4.48-10.79-7.42-.22-.2-.59-.35-.57-.88.44.28.79.47,1.11.7,5.71,4.04,11.95,7.07,18.44,9.61,1.43.56,2.9,1.02,4.37,1.45,3.09.9,6.25,1.36,9.45,1.63,2.61.22,5.21.52,7.8.85,2.84.36,5.57,1.13,8.22,2.2.65.26,1.28.57,2.05.56ZM163.87,219.6c.39.23.64.52.68.96.03.36.07.72.08,1.08.04,1.23-.23,2.42-.53,3.6-.97,3.81-2.3,7.51-3.72,11.17-.93,2.4-1.98,4.75-2.97,7.12-.22.53-.52,1.03-.57,1.79.36-.29.61-.47.83-.68.77-.76,1.56-1.5,2.28-2.31,1.52-1.73,3.08-3.42,4.32-5.37,1.77-2.78,3.34-5.68,4.64-8.71.57-1.32,1.1-2.68,1.43-4.08.95-4.11,1.41-8.27.91-12.49-.17-1.43-.32-2.87-.56-4.29-.57-3.29-1.19-6.56-1.81-9.84-.04-.24-.2-.45-.38-.82-.44.73-.7,1.4-.94,2.07-.61,1.75-1.23,3.49-1.79,5.25-1.21,3.83-2.56,7.61-4.18,11.29-.76,1.73-1.5,3.48-2.25,5.22-1.39,3.21-2.29,6.55-2.71,10.03-.53,4.4-1.28,8.75-2.69,12.97-.06.18-.24.41.09.65.59-.96,1.2-1.9,1.76-2.87,1.62-2.82,3.21-5.65,4.29-8.73.48-1.36,1.01-2.71,1.56-4.04.9-2.18,1.35-4.48,1.94-6.75.08-.3.08-.58-.02-.91-.24-.78-.05-2,.35-2.84,0,.59-.02,1.07-.03,1.56ZM84.17,311.71c.14-.57.21-.88.29-1.18.25-.91.47-1.84.77-2.73.78-2.36,1.37-4.77,1.69-7.24.08-.62.14-1.26.1-1.89-.13-2.07-.22-4.15-.5-6.2-.58-4.29-1.33-8.55-2.3-12.77-.6-2.6-1.27-5.18-2.58-7.53-.74-1.34-1.58-2.62-2.4-3.92-1.24-1.97-2.91-3.55-4.67-5.04-.15-.12-.37-.15-.62-.25-.05.38-.09.64-.11.91-.14,1.9.04,3.78.3,5.66.28,2.01.66,4.01.87,6.02.37,3.63.69,7.27.94,10.91.28,4.19.88,8.34,1.33,12.51.13,1.22.48,2.39.96,3.51,1.21,2.87,2.61,5.65,4.18,8.35.07.12.22.2.53.45-.87-3.11-1.23-6.06-1.44-9.03-.22-3.1-.42-6.21-.27-9.32.27-5.59-.47-11.07-1.98-16.44-.55-1.95-.88-3.94-1.27-6.1.7.54.93,1.17,1.15,1.79.62,1.79,1.25,3.58,1.79,5.39,1.38,4.66,1.97,9.44,1.76,14.3-.13,3.2-.1,6.4.08,9.6.17,3.11.42,6.21,1.12,9.25.06.24.14.48.3.99ZM54.88,236.17c-.28.51-.19.95-.09,1.39.41,1.66.81,3.33,1.26,4.98.21.76.35,1.59,1.16,2.03.07.04.11.14.16.22.71,1.1,1.48,2.16,2.11,3.3,1.39,2.53,2.58,5.17,3.58,7.88,1.09,2.96,2.16,5.93,3.15,8.93,1.04,3.17,1.83,6.41,2.37,9.71.64,3.92,1,7.87,1.45,11.81.34,2.96.78,5.9,1.81,8.72.32.89.6,1.79.84,2.7.12.45.31.83.58,1.2,1.12,1.58,2.19,3.2,3.32,4.77.45.62.87,1.29,1.69,1.83-.33-.69-.56-1.23-.83-1.75-.87-1.71-1.39-3.52-1.6-5.42-.4-3.58-.79-7.17-1.19-10.75-.03-.25.1-.55-.25-.75-.08,1.42-.13,2.81-.25,4.2-.22,2.68-.11,5.31.7,7.9.12.38.23.79.17,1.26-.17-.09-.27-.12-.32-.18-1.17-1.6-1.91-3.38-2.07-5.35-.08-1.07,0-2.16.04-3.24.11-3.29.35-6.58.33-9.87-.03-4.53-.85-8.97-1.81-13.38-.48-2.21-1.22-4.34-1.93-6.48-.8-2.4-1.53-4.83-2.5-7.15-1.96-4.67-4.4-9.09-7.14-13.35-1.03-1.6-2.25-3.04-3.55-4.43-.3-.33-.59-.69-1.18-.74ZM126.28,239.82c-.02.19-.05.32-.05.46-.01.45-.04.9-.01,1.35.2,3.97.7,7.9,1.41,11.8.62,3.42,1.24,6.83,1.54,10.29.27,3.14.53,6.29.71,9.44.1,1.8.07,3.6.05,5.41-.03,2.16-.12,4.32-.16,6.49-.04,1.76-.06,3.51-.07,5.27,0,.19.06.39.09.59.91-3.48,1.74-6.95,2.14-10.49.26-2.33.31-4.68.43-7.02.18-3.74.13-7.48-.29-11.21-.33-2.91-.64-5.82-1.29-8.69-.13-.58-.33-1.19-.17-1.81.13.04.26.05.28.1.7,1.95,1.44,3.88,1.87,5.93,1.64,7.87,1.51,15.77.48,23.68-.17,1.29-.53,2.56-.79,3.84-.04.18-.19.43.23.52.38-1.58,1-3.07,1.29-4.69.41-2.35.89-4.7,1.43-7.02,1.16-5.01,1.56-10.06.93-15.17-.21-1.69-.6-3.37-.95-5.05-.52-2.49-1.39-4.85-2.74-7.02-.5-.8-1-1.61-1.48-2.43-.88-1.5-2.04-2.75-3.38-3.84-.38-.31-.76-.64-1.5-.73ZM49.52,335.65c-.02-.12-.01-.19-.03-.2-.49-.32-.97-.65-1.47-.95-4.8-2.88-9.58-5.78-14.27-8.83-2.04-1.33-4.11-2.61-6.22-3.84-3.13-1.81-6.36-3.39-9.89-4.33-1.52-.4-2.98-1.03-4.46-1.58-.29-.11-.57-.27-.82-.47-.12-.09-.21-.34-.17-.47.06-.19.21-.41.38-.5.18-.09.45-.09.66-.04.97.2,1.95.36,2.89.66,2.76.87,5.39,2.05,7.98,3.34,3.68,1.84,7.23,3.88,10.66,6.15,1.35.9,2.72,1.78,4.13,2.57,2.67,1.51,5.37,2.96,8.07,4.42.63.34,1.3.62,1.97.9.16.07.38.28.57-.07-2.73-2.3-5.48-4.57-8.18-6.89-2.68-2.31-5.56-4.32-8.7-5.94-2.8-1.45-5.65-2.81-8.48-4.23-3.33-1.67-6.87-2.73-10.47-3.63-2.6-.65-5.18-.54-7.78-.03-.31.06-.67.09-.75.47-.08.36.23.55.46.77.1.09.2.18.3.27,2.95,2.48,6.11,4.64,9.66,6.16,3.32,1.42,6.65,2.8,9.98,4.2,1.96.82,3.87,1.73,5.69,2.83,1.66,1.01,3.32,2.01,4.95,3.07,1.78,1.15,3.6,2.25,5.54,3.11,1.73.77,3.48,1.51,5.23,2.24.67.28,1.35.51,2.03.75.15.05.31.07.5.1ZM57.21,158.18c.23.33.46.66.68.99.65,1.03,1.24,2.1,1.96,3.08,3.18,4.38,6.43,8.7,10.04,12.74,2.31,2.59,4.67,5.14,7.01,7.7.05.05.15.06.29.11-.06-.62-.34-1.12-.59-1.63-.65-1.34-1.35-2.66-1.97-4.01-2.14-4.66-5-8.88-8.06-12.96-3.54-4.73-7.17-9.39-10.57-14.22-.7-.99-1.54-1.88-2.34-2.79-.29-.33-.62-.67-1.13-.65-.43.3-.48.77-.47,1.21.02.81.06,1.62.21,2.42.42,2.22,1.2,4.34,2.01,6.45.88,2.28,1.93,4.47,3.13,6.6,1.55,2.76,3.32,5.37,5.12,7.96,1.1,1.59,2.22,3.18,3.63,4.53,3.26,3.11,6.54,6.2,9.82,9.3.15.15.34.25.51.38-.02-.27-.11-.48-.25-.64-1.13-1.29-2.22-2.61-3.4-3.85-4.59-4.86-8.82-10.02-12.44-15.65-1.15-1.78-2.21-3.62-2.97-5.61-.18-.46-.4-.9-.21-1.46ZM24.7,134.79c-.4.11-.7.16-.98.28-1.58.69-2.8,1.83-3.75,3.22-2.04,2.96-3.59,6.14-4.27,9.71-.06.31-.12.62-.2.92-.05.17-.09.38-.21.49-.14.14-.36.25-.55.27-.09,0-.28-.25-.29-.39-.02-.49-.01-.99.03-1.48.29-3.14.63-6.28.88-9.43.13-1.62.13-3.24.16-4.86,0-.54-.05-1.08-.14-1.61-.12-.7-.36-1.37-1.02-1.9-.22.26-.44.44-.54.66-.34.83-.71,1.66-.93,2.53-.78,3.08-.98,6.23-.83,9.4.09,2.04.47,4.02,1.16,5.95.41,1.15.41,1.19.21,2.15-.02.09-.02.18-.01.27.03.99.03,1.98.09,2.97.06.94.1,1.89.58,2.75.12.22.05.53.11.79.31,1.31.64,2.62.96,3.93.5.46.55,1.1.64,1.73.22.1.43.17.62.28.22.13.41.29.63.45.33-.46.61-.86.93-1.31-.35-.57-.15-1.09.28-1.56.15-.17.28-.35.44-.52,1.48-1.61,2.63-3.44,3.59-5.39.48-.97.86-1.99,1.21-3.01.23-.67-.07-1.05-.75-1.13-.47-.06-.9.04-1.25.37-.55.53-1.07,1.09-1.63,1.61-.38.35-.28.81-.34,1.28-.69.14-1.09.6-1.35,1.21-.44,1.04-.87,2.08-1.29,3.12-.2.5-.37,1.01-.58,1.51-.04.09-.24.18-.34.15-.15-.04-.38-.17-.4-.28-.05-.3-.04-.63.03-.93.33-1.55.9-3.02,1.63-4.43.14-.27.25-.56.38-.84-.79-.87-1.73-1.62-1.45-2.94.43-.02.93.03,1.39-.07,1.1-.24,2.2-.5,3.27-.84,1.18-.37,2.22-1,3.06-1.93.65-.72,1.09-1.55,1.1-2.55.01-.86-.39-1.27-1.25-1.19-.35.03-.72.13-1.03.29-.64.32-1.31.65-1.86,1.09-.84.67-1.59,1.46-2.4,2.17-.4.35-.85.65-1.29.95-.06.04-.24-.06-.33-.13-.05-.04-.06-.18-.02-.24.14-.27.3-.54.46-.8-.57-.76.16-1,.55-1.37.55-.53,1.13-1.04,1.67-1.58,1.62-1.59,3.03-3.34,4.07-5.36.56-1.09,1.02-2.21,1.19-3.44.04-.29-.03-.59-.06-1ZM31.35,31.43c-.12-.05-.33-.07-.35-.15-.24-.88-.65-1.7-.39-2.71.44-1.65.75-3.34,1.01-5.04.14-.92.08-1.88.06-2.83-.01-.61-.2-1.22-.86-1.39-.59-.15-1,.29-1.37.7-.68.76-1.1,1.65-1.34,2.63-.6,2.52-.88,5.06-.52,7.64.05.35.05.72,0,1.07-.04.27-.22.54-.53.52-.24-.02-.56-.12-.7-.29-.18-.23-.21-.57-.29-.87-.13-.52-.18-1.08-.39-1.56-.43-.99-.94-1.95-1.44-2.91-.12-.23-.32-.41-.45-.57l-1.24.59c.14.55.28,1.07.42,1.59.4,1.46,1.16,2.73,2.02,3.96.2.29.42.59.55.92.22.56-.29,1.13-.88.99-.35-.08-.68-.24-1-.41-.56-.29-1.1-.62-1.65-.93-.8-.44-1.65-.74-2.56-.83-1.63-.16-3.21.14-4.95.5.25.23.36.36.5.44.99.57,2.06.92,3.18,1.1,2.4.39,4.8.86,7.24.93.31,0,.7,0,.91.16.53.42,1.14.46,1.76.59.52.11,1.01.36,1.51.58.27.12.52.27.87.46,0-.56-.01-1.01-.02-1.46,0-.69.14-1.35.47-1.95.48-.88,1.25-1.17,2.17-.81.33.13.64.31.94.46.56-.66,1.1-1.26,1.61-1.89.95-1.15,1.79-2.39,2.34-3.78.33-.83.57-1.71.77-2.58.09-.38.01-.8-.05-1.2-.04-.28-.36-.47-.62-.38-.46.17-.94.34-1.35.6-2.17,1.42-3.81,3.3-4.69,5.77-.27.76-.47,1.54-.7,2.34ZM28.04,210.74c-.12-.59-.22-1.03-.3-1.46-.41-2.13-.72-4.26-.47-6.44.04-.39-.03-.8-.08-1.2-.37-2.77-.62-5.55-.41-8.35.19-2.48.41-4.96,1.4-7.27.37-.86.29-1.55-.15-2.28-.21-.35-.36-.74-.61-1.05-.3-.39-.64-.76-1.02-1.06-.52-.41-.92-.28-1.18.31-.36.79-.47,1.64-.5,2.5-.07,1.81.07,3.6.42,5.37.18.89.37,1.77.87,2.54.07.11.15.25.15.37,0,.17-.03.43-.13.48-.17.09-.44.11-.62.04-.19-.08-.31-.31-.47-.46-.17-.17-.35-.34-.67-.65.99,4.56,1.05,8.97.92,13.39-.01.4-.06.81-.16,1.2-.1.38-.41.59-.8.62-.37.03-.57-.22-.71-.52-.18-.41-.29-.86-.79-1.1-.18.04-.39.12-.61.13-.27.01-.55.02-.8-.05-3.36-.83-6.51-2.11-9.23-4.31-.34-.28-.73-.51-1.13-.7-.15-.07-.43-.19-.57.16.69.86,1.64,1.36,2.57,1.9.31.18.68.31.89.57.28.34.62.51.98.68,3.67,1.77,6.76,4.15,9.25,7.13.27-.3.52-.62.82-.88.69-.61,1.44-.68,2.24-.21.26.15.5.35.88.62ZM56.93,245.2c.05.26.06.52.14.77.96,3.15,1.93,6.29,2.89,9.44.6,1.98,1.21,3.97,1.75,5.97.71,2.65,1.36,5.33,2.02,7.99.5,2.01,1.08,4.01,1.46,6.04.57,3.02,1.49,5.94,2.47,8.85.18.54.48,1.04.73,1.57.27-.19.18-.44.16-.64-.47-3.75-.88-7.52-1.57-11.24-.99-5.38-2.71-10.56-4.47-15.72-.8-2.35-1.66-4.67-2.52-7-.78-2.12-1.77-4.14-3.06-6.02ZM39.14,55.91c-.22,1.48-.12,2.85.55,4.04.43.77.57,1.82,1.59,2.21.27.1.33.69.19.96-.13.25-.53.34-.84.13-.3-.19-.58-.43-.82-.69-.27-.29-.49-.64-.69-.89-.16-.07-.24-.12-.32-.13-2.82-.23-5.45.49-7.99,1.64-.08.04-.16.08-.24.13-.41.26-.55.62-.31,1.03.2.34.46.67.76.92.53.45,1.18.65,1.86.73,1.42.18,2.79-.04,4.09-.62.82-.36,1.62-.79,2.43-1.19.43-.21.86-.46,1.46-.47,0,.4,0,.7,0,1.04.8.02,1.48-.24,2.16-.45.87-.28,1.74-.48,2.65-.45.22,0,.46.01.54-.36-.34-.4-.67-.9-1.11-1.26-.43-.35-.78-.74-1.07-1.2-.39-.61-.74-1.25-1.19-1.8-.77-.94-1.59-1.83-2.42-2.72-.3-.32-.65-.62-1.29-.61ZM33.4,224.47c.59-.17.66-.55.78-.88.35-1.02.71-2.04,1.04-3.07.46-1.46.96-2.91,1.33-4.39.41-1.67.53-3.38.25-5.09-.13-.82-.41-1.57-.87-2.25-.17-.25-.4-.49-.65-.67-.51-.36-1.05-.3-1.46.15-.21.23-.37.51-.53.78-.63,1.12-.94,2.34-1.05,3.61-.28,3.39-.04,6.75.68,10.07.12.56.31,1.11.48,1.74ZM29.58,183.33c1.59-.72,2.59-.43,3.43.93.38.62.67,1.28.72,2.02.05.9.07,1.8.12,2.69.01.25-.14.54.18.77.13-.17.27-.33.4-.5.13-.18.23-.37.33-.53-.48-.87-.55-1.24-.39-1.96.71-3.16.67-6.34.29-9.53-.07-.57-.23-1.15-.46-1.69-.34-.8-.89-.89-1.44-.26-.33.37-.62.78-.86,1.2-.61,1.06-1.02,2.21-1.26,3.41-.09.44-.17.87.03,1.32.1.22.09.54.02.78-.05.18-.26.41-.42.43-.17.02-.48-.15-.53-.3-.14-.46-.25-.96-.26-1.44-.03-1.24.29-2.42.75-3.55.43-1.04.26-2.03-.14-3.01-.08-.19-.26-.34-.37-.47-.45.03-.7.26-.71.59,0,.78-.35,1.47-.48,2.22-.17,1.03-.57,1.99-1.13,2.88-.16.26-.31.53-.48.83,1.23.77,1.85,1.99,2.67,3.16ZM38.04,225.68c.17-.17.31-.28.4-.42.95-1.42,1.96-2.81,2.83-4.28.99-1.66,1.92-3.37,2.59-5.2.26-.73.44-1.46.42-2.24-.02-.91-.4-1.64-1.11-2.22-.31-.25-.61-.32-1-.2-.67.22-1.19.61-1.57,1.21-.59.93-.91,1.95-1.22,2.99-.54,1.81-1.09,3.62-1.68,5.42-.34,1.04-.48,2.11-.58,3.18-.04.37,0,.71.29,1,.22.21.39.47.62.76ZM45.12,52.16c-.62-2.62-1.23-5.15-2.06-7.62-.31-.94-.76-1.83-1.43-2.58-.17-.19-.41-.31-.62-.46-.73.41-.85,1.11-.98,1.75-.58,2.81-.16,5.54.69,8.24.13.41.5.44.75.66.02.13.04.27.05.4.02.57.15,1.14-.47,1.57-.18.12-.15.57-.21.83.39.35.72.66,1.06.94.32.27.52.71,1.07.85.16-1.82.38-3.52,2.15-4.59ZM27.64,170.45c0-1.53-.31-2.88-.72-4.2-.11-.37-.24-.78-.72-.94-.66.42-.97,1.07-1.2,1.75-.41,1.19-.71,2.41-.28,3.67-.36.32-.69.61-1.08.97-.53-.43-.69-.98-.79-1.55-.13-.71-.21-1.43-.33-2.14-.17-.94-.52-1.82-1.09-2.6-.19-.25-.4-.49-.64-.69-.41-.35-.83-.32-1.21.04-.46.45-.81.99-.96,1.61-.2.8-.07,1.53.65,2.05.21.15.46.26.75.43-.26.18-.48.33-.69.48-.21.14-.43.28-.65.43.05.18.08.31.14.42.04.07.13.1.24.18.25-.16.5-.34.78-.48.98-.53,1.8-.39,2.55.43.37.41.65.86.72,1.42.09.71.2,1.43.32,2.14.03.18.13.36.26.71.28-.73.44-1.3.7-1.82.21-.44.51-.84.81-1.22.11-.14.35-.31.6-.02-.07.14-.15.29-.22.45-.91,2.09-1.18,4.24-.65,6.47.08.32.1.72.59.9.21-.26.47-.51.64-.81.95-1.67,1.21-3.48,1-5.36-.09-.83-.45-1.55-1.08-2.13-.23-.21-.48-.41-.69-.65-.22-.26-.27-.56-.07-.87.85-.02,1.54.41,2.33.93ZM57.92,109.81c-.41-.23-.8-.46-1.2-.66-1.66-.82-3.32-1.63-4.97-2.45-1.02-.5-1.95-1.12-2.77-1.91q-.9-.88-.91-2.14c-.9-.37-1.85-.63-2.84-.68-.35-.02-.72.02-1.07.09-.93.19-1.28.78-1.02,1.68.21.71.63,1.29,1.14,1.81.89.91,1.93,1.62,3.06,2.21,2.7,1.42,5.61,2.21,8.58,2.8.39.08.81.09,1.21.05.36-.04.7-.19.8-.79ZM48.97,54.01c.09-.07.19-.11.23-.19.68-1.28,1.43-2.51,2.47-3.54.39-.38.43-.88.43-1.38,0-1.81-.11-3.61-.58-5.36-.09-.35-.2-.7-.35-1.02-.49-1.07-1.18-1.21-1.96-.37-.36.39-.71.83-.95,1.31-1.17,2.36-1.65,4.83-1.09,7.46.08.41-.05.86-.07,1.22.61.61,1.22,1.2,1.88,1.86ZM30.91,226.66c.12,0,.25,0,.37.01,0-.13-.01-.26-.01-.38-.02-.81-.01-1.62-.07-2.43-.29-4.03-1.41-7.79-3.59-11.22-.19-.3-.4-.61-.64-.87-.71-.76-1.2-.71-1.61.23-.21.49-.39,1.03-.4,1.56-.02.76.04,1.53.19,2.28.3,1.43.96,2.72,1.69,3.97.34.58.68,1.17,1.03,1.75,1.01,1.7,2.03,3.41,3.05,5.11ZM52.58,59.85c.63-.74,1.24-1.4,1.79-2.12,1.21-1.58,1.86-3.39,2.08-5.35.05-.48.03-1-.07-1.47-.21-.96-.94-1.35-1.84-.98-.45.18-.87.47-1.26.77-1.29,1.03-2.21,2.36-2.97,3.81-.47.89-.9,1.77-.64,2.82.05.21,0,.45,0,.67,0,.98.38,1.52,1.32,1.73.52.11,1.06.09,1.59.12ZM73.66,137.55c.62,1.74,1.2,3.38,1.78,5.02,1.1-.21,1.78-.55,2.5-1.27.38-.38.78-.75.77-1.35-.13-.1-.23-.2-.35-.24-.67-.22-1.32-.19-1.95.16-.27.15-.59.27-.8-.11.54-1.2.57-1.22,1.38-1.71.27-.16.55-.32.78-.53,1.05-.98,2.13-1.93,3.11-2.98.6-.65,1.09-1.43,1.54-2.2.59-1.03.89-2.16.92-3.35,0-.2-.08-.4-.13-.62-.22.04-.37.04-.47.1-.3.19-.61.39-.88.62-.88.78-1.63,1.68-2.2,2.71-.52.94-.99,1.92-1.49,2.87-.25.48-.39.51-1.07.19-.14-.54.12-1.15-.22-1.7-.16.08-.32.1-.37.18-.92,1.42-2.26,2.54-2.84,4.21ZM30.59,231.18c-3.44.82-5.06.86-7.14.76-.81-.04-1.61-.14-2.41-.26-.42-.06-.8-.04-1.15.21-.52.36-1.05.69-1.53,1.1-.53.44-.49.89.05,1.35.53.44,1.14.71,1.81.87,1.45.37,2.92.46,4.41.27,2.06-.26,4.04-.84,6.05-1.32.37-.09.79-.2,1-.66-.36-.73-.28-1.67-1.09-2.31ZM23.54,204.74c.26-.57.21-1.02.2-1.45-.02-1.44-.08-2.88-.1-4.32-.02-1.9-.29-3.77-.61-5.63-.26-1.53-.79-2.96-1.56-4.29-.27-.46-.61-.89-.94-1.31-.18-.23-.44-.31-.73-.25-.33.07-.41.36-.42.62-.03.94-.1,1.89,0,2.83.38,3.78,1.19,7.46,2.62,10.99.38.95.87,1.84,1.53,2.81ZM37.79,57.56c-1.28-1.54-1.27-1.56-2.93-2.02-1.7-.48-3.44-.7-5.21-.67-.49.01-.99.06-1.47.16-.39.08-.79.21-1.14.39-.59.3-.69.78-.35,1.36.38.64.95,1.09,1.57,1.45,1.84,1.05,3.85,1.51,5.95,1.54.83.01,1.61-.25,2.24-.81.46-.41.86-.89,1.35-1.4ZM11.15,118.8c1.39-.47,2.21.31,3,1.22.41-.6.55-1.21.53-1.84-.03-1.26-.05-2.52-.16-3.77-.17-1.85-.95-3.46-2.1-4.89-.39-.49-.84-.93-1.58-.95-.81,1.07-.98,2.32-1.04,3.58-.1,2.27.18,4.48,1.36,6.65ZM54.58,103.78c.06.07.1.16.17.2,1.71.9,3.42,1.81,5.14,2.7.12.06.28.04.49.06-.43-.77-.79-1.44-1.18-2.1-.13-.23-.31-.43-.51-.61-.92-.85-1.88-1.67-2.78-2.54-1.69-1.62-3.45-3.16-5.37-4.5-.74-.51-1.52-.96-2.32-1.37-.47-.24-1.02-.35-1.53-.49-.27-.07-.54-.04-.68.35.06.16.11.38.22.57,1.8,2.98,4.37,5.1,7.47,6.6.28.14.59.24.9.03.16-.11.31-.16.48.13-.15.29-.32.63-.49.96ZM15.65,97.36c-.87,1.05-1.32,1.89-1.58,3.13-.41,1.99-.62,4.01-.49,6.05.04.71.02,1.45.54,2.05.1.12.14.35.1.51-.1.45.13.78.31,1.14.31.65.61,1.31.92,1.96.07.14.09.37.39.3.28-.58.58-1.18.84-1.8.1-.24.15-.52.16-.78.08-2.43.16-4.86.2-7.3.01-.76-.05-1.53-.12-2.29-.07-.82-.26-1.61-.69-2.31-.13-.22-.34-.39-.58-.65ZM28.6,201.55c.22-.34.4-.53.47-.75.35-1.12.65-2.25,1.02-3.37.42-1.28.91-2.55,1.35-3.83.65-1.94,1.02-3.93.93-5.98-.03-.63-.14-1.25-.26-1.87-.1-.51-.42-.89-.82-1.21-.19-.16-.43-.16-.62,0-.29.24-.51.52-.46.92.04.31.13.62.16.93.08.81.18,1.61.19,2.42,0,.34-.14.71-.3,1.01-.08.15-.38.29-.55.26-.16-.03-.36-.28-.39-.46-.06-.3.02-.63,0-.94-.01-.19.01-.45-.33-.46-.05.12-.13.24-.16.37-.91,4.04-1.02,8.13-.57,12.24.02.2.17.38.33.72ZM38.47,43.29c-.9.42-1.23.3-1.37-.51-.09-.53-.08-1.08-.14-1.61-.06-.44-.09-.9-.26-1.31-.69-1.72-1.62-3.33-2.64-4.87-.3-.45-.68-.84-1.06-1.22-.17-.17-.43-.23-.67-.35-.43.52-.51,1.06-.48,1.6.04.72.16,1.43.22,2.15.06.65.33,1.2.72,1.72,1.06,1.43,1.79,3.02,2.19,4.76.09.39.23.78.4,1.14.08.17.29.27.39.36.35-.07.24-.59.64-.44.12,1.01.13,1,.71,1.83.39.55.74,1.13,1.12,1.69.1.15.12.42.38.41-.05-1.76-.1-3.51-.16-5.34ZM16.69,140.13l.23.09c.11-.18.24-.35.32-.55.52-1.34,1.04-2.69,1.53-4.04.23-.62.51-1.24.1-1.93-.12-.19-.02-.53.01-.79.05-.45.15-.89.2-1.33.23-1.83.47-3.66.69-5.49.09-.76.07-1.53-.14-2.28-.05-.19-.18-.36-.34-.65-.27.45-.48.77-.68,1.1-.18-.03-.31-.04-.44-.06-.16-.04-.31-.09-.46-.13-.64.82-.93,1.73-1.34,2.57-.45.93-.07,1.95-.43,2.88.77,1.14.99,2.43,1,3.75,0,1.75-.08,3.51-.14,5.26-.02.54-.07,1.07-.11,1.61ZM55.74,70.46c.71-.03,1.04-.39,1.37-.77.58-.68,1.18-1.35,1.77-2.03.18-.2.36-.41.5-.63.93-1.46,1.5-3.06,1.75-4.77.05-.34-.02-.69-.03-1.02-.89-.12-1.08-.13-1.59.25-.64.48-1.3.98-1.83,1.58-.68.77-1.3,1.61-1.86,2.47-.37.56-.79.93-1.41.93-.39.66-.73,1.24-1.07,1.83-.1.18-.3.35-.08.66,1.07,0,1.92.51,2.48,1.5ZM38.85,41.67c.11-.07.22-.1.26-.16.4-.74.95-1.3,1.78-1.56.37-.12.54-.44.63-.82.47-2.02.96-4.03,1.09-6.11.04-.58.02-1.17-.05-1.75-.06-.49-.2-1-.79-1.13-.54-.12-.83.28-1.1.63-.76.97-1.24,2.09-1.57,3.27-.45,1.61-.69,3.26-.84,4.92-.09.98.17,1.86.6,2.72ZM17.42,173.74c-.76-.68-.76-.67-1.14-1.51-.18-.41-.33-.84-.49-1.26-.1-.25-.15-.56-.33-.72-.76-.68-.92-1.64-1.22-2.52-.29-.85-.52-1.73-.8-2.58-.34-1.04-.91-1.96-1.58-2.82-.4-.51-.9-.88-1.61-.68-.32.43-.26.89-.18,1.32.19,1.06.39,2.13.64,3.18.17.7.4,1.38.65,2.06.12.33.3.66.74.64.52-.53-.25-1.05-.04-1.64.15.15.26.22.32.33.28.52.41,1.07.4,1.68-.01.58.15,1.17.92,1.24.07,0,.2.15.19.2-.08.34.19.46.36.66.53.61,1.1,1.2,1.52,1.89.72,1.2,1.3,2.48,1.69,3.83.21.74.4,1.48.65,2.21.06.18.25.37.43.46.11.06.31-.06.52-.11-.2-.95-.37-1.83-.58-2.7-.06-.24-.2-.53-.39-.67-.5-.37-.61-.87-.64-1.42-.02-.36-.01-.72-.02-1.04ZM36.07,198.46c-.17.13-.31.2-.38.3-.61.94-1.41,1.62-2.52,1.9-.17.04-.31.18-.48.25-.42.17-.63.51-.71.92-.06.31-.07.62-.07.94-.01.76-.05,1.53,0,2.29.05.84.23,1.66.68,2.41q1.51-1.11,3.79-.51c.02-.08.05-.17.04-.25-.12-1.8-.12-3.58.25-5.37.2-.98-.2-1.91-.6-2.86ZM45.51,59.25c.03.16.1.29.08.4-.17.71.14,1.32.39,1.93.4,1,1.36,1.38,2.32.88.71-.37,1.3-.91,1.72-1.62-.4-.41-.71-.82-1.1-1.09-.72-.5-.92-1.18-.86-1.99.02-.22.04-.45.05-.67.06-1.03-.22-1.95-.85-2.77-.37-.48-.75-.92-1.43-.83-.67.09-.95.61-1.19,1.16-.04.08-.07.17-.09.25-.37,1.33-.38,2.66-.01,3.99.07.24.21.46.33.72.27-.15.44-.24.66-.36ZM37.45,76.58c.01.54.27.8.61.95.45.2.92.39,1.4.46,3.89.55,7.52-.12,10.8-2.36.09-.06.13-.2.26-.4-.25-.1-.43-.22-.62-.23-1.17-.06-2.33-.1-3.5-.12-2.44-.05-4.84.29-7.19.94-.6.17-1.21.33-1.75.76ZM73.03,135.33c.13-.02.19,0,.2-.03.24-.32.47-.65.72-.97,2.96-3.8,4.91-8.15,6.74-12.56.31-.74.41-1.56.57-2.35.04-.2,0-.46-.1-.65-.06-.12-.29-.21-.43-.2-.16.01-.35.12-.45.25-.48.59-1,1.16-1.4,1.8-.79,1.26-1.31,2.66-1.78,4.07-.8,2.39-1.71,4.73-2.8,7.01-.48,1.01-.81,2.09-1.2,3.15-.05.14-.04.31-.06.48ZM52.1,79.67c-.68.63-1.21.82-1.83.79-.41-.02-.81,0-1.22-.04-3.43-.27-6.73.41-9.98,1.4-.23.07-.44.24-.64.35.11.59.48.87.92,1,.55.17,1.14.35,1.71.35.8,0,1.63-.06,2.41-.27,1.39-.37,2.77-.82,4.12-1.31,1.64-.59,3.26-1.26,4.95-1.92-.03-.28-.03-.59-.34-.78-.93-.59-1.96-.9-3.03-1.12-.13-.03-.28-.02-.39.03-.66.29-1.32.59-1.97.9-.06.03-.08.13-.17.29.62.05,1.18.1,1.75.15.58.06,1.16.16,1.75.19.56.03,1.13,0,1.98-.02ZM49.45,71.71c-.33-.63-.33-.64-.61-.72-2.16-.64-4.36-1.15-6.61-1.38-1.08-.11-2.16-.11-3.23.13-.39.09-.77.23-1.12.42-.36.2-.39.66-.08.91.35.28.73.53,1.13.73,3.33,1.66,6.71,1.4,10.11.2.12-.04.22-.15.41-.29ZM60.59,141.44c.13.09.22.19.34.22,2.2.66,4.39,1.36,6.61,1.94,1.08.28,2.22.34,3.33.47.23.03.49-.09.71-.13.05-.98-.46-1.6-1.03-2.19.15-.27.27-.49.39-.71-.22-.51-.25-1.06-.58-1.42-.7-.05-.5.75-.88.83-.61-.13-1.14-.36-1.65-.33-2.07.12-4.13.38-6.15.82-.37.08-.79.12-1.1.51ZM32.93,196.86c-.29.82-.72,1.59-.25,2.48.6,0,1.06-.25,1.39-.72.46-.66,1.01-1.27,1.08-2.14.01-.15.16-.3.27-.43.14-.17.33-.31.44-.49.87-1.45,1.45-3,1.62-4.69.04-.44.01-.9-.04-1.35-.02-.2-.14-.45-.29-.55-.27-.17-.52.02-.7.23-.33.36-.71.71-.97,1.12-.42.69-.75,1.43-1.15,2.14-.34.6-.44,1.39-1.3,1.6-.12.03-.23.26-.29.41-.17.42-.31.85-.46,1.27-.31.89-.63,1.79-.92,2.69-.06.2-.16.49.2.66.23-.9.4-1.8,1.36-2.23ZM33.95,44.91c-.02-.05-.07-.18-.14-.29-.98-1.46-1.8-3.01-2.4-4.66-.43-1.17-1.27-1.91-2.3-2.59-.5.49-1.1.81-1.46,1.52.69,1.71,1.51,3.4,2.45,5.04.8,1.39,2.08,2.31,3.06,3.54.26-.85.5-1.61.79-2.55ZM59.21,89.2c-.11.21-.19.28-.18.36.15,2.54.65,4.99,1.78,7.29.11.23.31.43.5.61.36.36.4.52.14.88-.13.17-.3.3-.5.49.57,1.05,1.17,2.06,1.67,3.11.51,1.08.92,2.21,1.37,3.32.12-.06.2-.07.2-.1.04-1.44.08-2.87.12-4.31q-.82-.4-.88-1.35c-.01-.22-.03-.45-.08-.67-.66-2.86-1.56-5.63-2.97-8.22-.28-.51-.59-1-1.16-1.4ZM19.47,216.83c.25-.63-.06-1.05-.32-1.44-.66-.99-1.54-1.75-2.57-2.33-1.15-.65-2.41-.97-3.69-1.22-.83-.16-1.66-.37-2.47-.62-.46-.15-.75,0-1.08.26.21.54.43.99.81,1.31,1.64,1.34,3.34,2.58,5.41,3.38.79-.47,1.6-.23,2.42.09.49.19.98.38,1.51.58ZM25.84,35.83c-1.81.59-3.58,1.12-5.31,1.73-.93.33-1.83.77-2.71,1.22-.55.28-1.07.65-1.31,1.27.1.14.16.27.25.36.77.67,1.66.83,2.65.66,1.53-.25,5.02-1.88,6.42-3.02,0-.71,0-1.42,0-2.23ZM39.76,198.16c-.2.16-.38.25-.47.38-.59.85-1.18,1.69-1.74,2.57-.14.21-.15.51-.18.78-.21,1.94-.05,3.86.43,5.76.03.12.14.22.25.39.21-.12.42-.19.56-.33.71-.71,1.23-1.55,1.49-2.53.56-2.09.48-4.19.02-6.28-.05-.24-.23-.45-.38-.73ZM12.16,130.55c.43-.59.74-1.09,1.12-1.51.27-.29.37-.6.4-.96.14-1.98.1-3.95-.23-5.9-.11-.66-.32-1.3-.81-1.82-.47.18-.92.35-1.36.51-.04.1-.09.18-.11.26-.29,1.92-.23,3.85-.13,5.77.01.27.07.54.16.79.29.89.6,1.77.96,2.86ZM28.76,226.72c-1.01.44-1.09.44-1.94.09-.29-.12-.57-.27-.85-.42-1.52-.8-2.95-1.73-4.3-2.78-.32-.25-.64-.55-1-.67-1.11-.36-2.26-.6-3.44-.58-.11,0-.21.12-.4.23.93,1.34,2.01,2.45,3.35,3.31.15.1.33.16.5.2,1.09.29,2.17.59,3.26.86.25.06.54.12.79.07.18-.03.33-.24.52-.38.14.24.26.42.36.59,1.1.27,2.19.54,3.29.79.14.03.31-.04.58-.08-.27-.48-.49-.86-.7-1.24ZM64.72,98.19c.15-.22.23-.29.25-.36.59-2.2,1.55-4.23,2.82-6.11.4-.6.43-1.14.17-1.77-.2-.49-.26-1.13-.89-1.24-.6-.1-.96.42-1.31.82-.69.79-1.13,1.73-1.56,2.68-.23.52-.53,1-.81,1.54.42,1.4.86,2.86,1.34,4.44ZM24.77,164.7c-.27.06-.44.12-.61.13-.39.03-.64-.22-.54-.55.09-.3.23-.58.37-.86.28-.57.58-1.12.84-1.69.32-.7.5-1.44.53-2.22.01-.36,0-.72-.37-1.01-.65.13-1.18.55-1.71.95-1.49,1.15-2.92,2.38-4.61,3.33.13.21.25.4.37.59,1.51-.66,2.57-.07,3.42,1.1.34.47.62.99.93,1.48.11.17.11.45.48.44.28-.52.56-1.07.9-1.71ZM11.5,148.72c-.34-1.84-2.55-5.45-4.39-7.23-2.38-2.31-3.59-3.21-4.56-3.36-.21.4.06.7.24.98.83,1.34,1.69,2.66,2.79,3.8,1.85,1.9,3.7,3.8,5.55,5.69.05.05.16.06.36.12ZM20.8,180.26c.57-.53.79-1.11.95-1.71.57-2.14.34-4.28-.16-6.39-.3-1.27-.81-1.36-1.69-.41-.67.72-1.07,1.52-.8,2.56.32,1.26.51,2.55.86,3.8.19.68.25,1.42.84,2.14ZM56.17,74.35c.07.05.15.11.22.16,1.26-.78,2.52-1.55,3.77-2.34,1-.63,1.84-1.43,2.55-2.37.37-.5.72-1.02.76-1.73-.58-.37-1.18-.45-1.8-.27-.74.21-1.42.54-1.95,1.14-.36.4-.72.8-1.1,1.18-1.04,1.03-1.77,2.25-2.3,3.61-.08.19-.1.41-.15.62ZM39.9,54.44c-.79-1.5-1.47-2.82-2.18-4.12-.5-.91-1-1.82-1.57-2.68-.28-.42-.51-.98-1.15-1.04-.58.46-.32,1.09-.24,1.62.38,2.24,1.15,4.35,2.3,6.31.15.25.41.44.66.7.62-.6,1.23-1.03,2.16-.79ZM68.5,93.37c-.1.05-.16.06-.18.09-.09.1-.18.2-.24.32-1.94,3.27-2.73,6.83-2.75,10.6,0,.09.11.17.21.34,1.88-3.24,2.98-6.65,3.77-10.12-.3-.46-.56-.85-.81-1.23ZM41.53,86.01c.47.28.67.46.9.53,1.37.46,2.75.4,4.12.05,2.16-.54,4.13-1.51,6.05-2.61.03-.02.03-.07.06-.14-.31-.45-.77-.37-1.2-.31-1.56.22-3.12.44-4.66.72-1.73.31-3.36.96-5.27,1.76ZM9.63,191.15c.54.01.48-.54.95-.46,0,.43,0,.83,0,1.19,1.46,1.24,3.03,2.23,4.44,2.86.99.44,2.03.49,3.14.59q-.47-.94-1.19-1.54c-2.05-1.74-4.35-3.05-6.92-3.86-.57-.18-1.15-.45-1.9-.32.46.72,1.02,1.15,1.49,1.53ZM13.99,14.66c-2.43-.67-4.82-.4-7.19-.24-.37.02-.82-.04-1.16.4.19.26.33.54.55.74,1.23,1.07,2.66,1.54,4.27,1.24,1.19-.23,2.35-.6,3.53-.92.07-.02.13-.12.22-.21-.06-.28-.12-.59-.21-1ZM24.13,191.24c-.21-1.15-.4-2.02-.53-2.9-.09-.6-.32-1.12-.61-1.63-.38-.66-.72-1.35-1.14-1.98-.59-.9-1.2-1.79-1.86-2.64-.36-.46-.83-.81-1.53-.7-.81,1.58-.17,2.94.56,4.33,1.32-.18,2.2.48,2.87,1.45.58.85,1.06,1.76,1.57,2.66.21.37.37.76.67,1.4ZM52.36,91.27c-.02.95.14,1.63.41,2.29.77,1.88,1.68,3.68,3.07,5.18.26.28.52.63,1.04.6.08-.45-.09-.86-.17-1.29-.09-.48-.22-.98-.18-1.46.04-.46.29-.91.46-1.39-1.28-1.48-2.64-2.89-4.64-3.94ZM27.8,225.86c.04-.07.07-.14.11-.21-.73-.85-1.44-1.71-2.19-2.54-1.75-1.93-3.91-3.3-6.19-4.5-.35-.18-.73-.36-1.21-.03.19.25.34.52.55.72.75.71,1.52,1.41,2.31,2.08.37.32.79.59,1.22.83.68.37,1.31.77,1.78,1.42.15.21.38.39.6.53.84.53,1.68,1.05,2.53,1.55.14.09.33.11.49.16ZM1.41,146.03c-.04.48.16.78.42,1.02.56.51,1.12,1.04,1.74,1.49,1.29.92,2.73,1.57,4.22,2.08,1.32.44,2.62.97,4.03,1.07.07,0,.15-.08.28-.16,0-.22,0-.47,0-.67-.18-.08-.26-.15-.34-.15-1.52.09-2.8-.53-4.02-1.34-1.05-.7-2.09-1.41-3.17-2.06-.73-.44-1.51-.8-2.29-1.14-.26-.12-.59-.09-.9-.13ZM19.03,115.26c.6-1.31.93-2.47,1.1-3.68.14-.96-.05-1.64-.46-1.68-.72-.06-1.1.51-1.52.97-.12.13-.19.31-.23.48-.15.59-.07,1.29-.87,1.52-.08.02-.17.23-.16.35.02.66-.5.89-.95,1.13.03.42.03.78.07,1.14.03.32-.09.69.27,1,.26-.4.45-.75.69-1.07.45-.6.86-.69,1.64-.41.12.04.23.14.42.25ZM22.97,228.59c-.98-.38-1.69-.64-2.39-.93-1.71-.7-3.47-.81-5.28-.48-.12.02-.22.13-.4.24.22.21.38.41.59.55.96.67,2.01,1.18,3.12,1.55q1.45.48,2.78-.18c.44-.22.88-.42,1.57-.74ZM29.8,204.48c-.52-.02-.95-.03-1.44-.04.04,1.54.31,2.99.67,4.42.11.43.22.88.41,1.28.24.52.59.98,1.23,1.03.75-1.79.38-4.59-.88-6.69ZM71.4,131.69c.14-.18.26-.27.29-.39.23-.73.46-1.45.66-2.19.25-.96.31-1.94.19-2.93-.07-.59-.29-1.13-.69-1.57-.27-.29-.72-.3-.93.01-.67,1.01-.97,2.11-.66,3.31.16.6.36,1.2.54,1.79.19.63.39,1.26.6,1.96ZM8.87,23.62c.31.11.54.25.78.28,1.42.18,2.85.36,4.28.49.67.06,1.35.05,2.02,0,1.18-.1,1.33-.23,2.03-1.45-.27-.07-.52-.17-.78-.19-.49-.05-.99-.11-1.48-.07-1.79.12-3.58.27-5.37.42-.49.04-.98.1-1.48.53ZM50.07,103.9c.2.25.29.41.42.5.56.37,1.12.75,1.72,1.06,3.04,1.55,6.09,3.09,9.14,4.62.15.07.3.22.53.06,0-.09.02-.27-.04-.32-.42-.34-.83-.7-1.29-.96-2.46-1.39-4.93-2.78-7.43-4.1-.74-.39-1.6-.57-2.41-.84-.15-.05-.32-.01-.64-.02ZM50.63,71.04c.14-.17.3-.29.28-.36-.18-.88.26-1.56.66-2.26.55-.98,1.1-1.96,1.6-2.96.26-.52.43-1.08.58-1.64.06-.23-.02-.49-.04-.73-.66-.1-1.13.11-1.56.47-.53.44-.9,1-1.2,1.6-.19.38-.22.75-.04,1.16.19.45.33.93.44,1.41.09.43-.11.56-.65.49-.12-.02-.24,0-.4,0-.09.97-.15,1.89.33,2.83ZM107.87,355c-.03.07-.06.14-.09.21.05.06.09.15.16.17,3.92,1.45,7.75,3.14,11.6,4.76.04.02.09,0,.13,0,.03,0,.04-.05.13-.15-.58-.53-1.18-1.06-1.76-1.6-.4-.38-.86-.64-1.38-.81-.94-.31-1.86-.68-2.81-.95-1.98-.57-3.98-1.09-5.97-1.63ZM13.36,159.87c-.23-.91-.47-1.76-.66-2.63-.12-.57-.42-.97-.94-1.22-1.13-.55-2.25-1.11-3.38-1.65-.05-.03-.15.04-.23.07.8,1.9,3.35,4.59,5.21,5.43ZM14.1,10.44c.23-1.63.32-3.23.07-4.83-.13-.82-.51-1.53-1.15-2.08-.15-.13-.36-.19-.62-.32-.08.31-.18.52-.18.72.02.67.04,1.34.14,2,.23,1.62,1.13,3,1.74,4.5ZM210.12,447.94c1.95,2.14,5.07,2.81,6.96,1.53-1-.4-1.8-1.13-2.81-1.29-1.31-.21-2.63-.53-4.15-.24ZM14.19,173.59c-.49.21-.64.48-.56.9.34,1.91.81,3.78,1.74,5.5.09.17.14.45.54.33-.04-1.51-.14-3.03-.45-4.51-.17-.8-.51-1.62-1.27-2.21ZM62.25,132.35c-.06.07-.12.13-.18.2.64.62,1.28,1.24,1.93,1.85,1.38,1.29,2.78,2.56,4.15,3.85.4.37.8.67,1.52.54-2.18-2.61-4.52-4.85-7.43-6.43ZM23.34,41.53c.1.07.19.18.3.2,1.37.3,2.7.71,3.97,1.32.08.04.22-.06.36-.1-.5-1.06-.98-2.08-1.47-3.09-.03-.07-.14-.1-.25-.18-.91.53-1.84,1.07-2.77,1.61-.06.04-.08.14-.14.25ZM67.93,112.36c.14-.03.27-.03.37-.08,1.11-.55,2.06-1.28,2.74-2.33.17-.26.33-.62.67-.6.53.03.73-.28.89-.67.14-.35.46-.7.14-1.11-2.01.73-4.26,2.97-4.82,4.79ZM17.13,120.36c-.26.3-.47.66-.79.88-.45.31-.43.76-.52,1.18-.09.39-.16.8-.19,1.2-.04.42-.14.86.1,1.47.6-1.25,1.28-2.24,2.14-3.09.12-.11.17-.31.2-.48.22-1.1-.13-2.03-.88-2.83-.04-.04-.16,0-.32,0,.09.57.17,1.12.26,1.68ZM19.84,199.79c-.31-1.04-.55-1.88-.78-2.64-1.09-.18-2.06-.34-3.03-.49-.25-.04-.43.08-.49.34.78,1.12,1.76,1.77,4.3,2.79ZM21.78,181.54c.44.67.88,1.34,1.32,2.01.02.04.06.08.1.08.04,0,.08-.03.1-.04.32-1.03.64-2.05.97-3.12-.23-.67-.47-1.42-.77-2.3-.26.68-.43,1.23-.69,1.74-.26.51-.61.98-1.03,1.63ZM63.35,116.28c-.82.44-1.65.88-2.48,1.32-.12.06-.26.11-.35.2-.6.53-1.29.96-1.66,1.76.71.29,1.32.03,1.85-.25.91-.48,1.78-1.06,2.62-1.66.54-.38.51-.53.02-1.37ZM37.86,230.13c1.39-.51,2.44-1.1,3.41-1.79.61-.43.83-.9.96-1.86-1.43.5-2.44,1.68-3.87,2.14-.14.43-.28.84-.5,1.5ZM48.79,68.44c.13-.94.24-1.6.3-2.26.02-.21-.03-.46-.13-.65-.23-.43-.4-.9-.79-1.23-.4.33-.78.64-1.18.98.36,1.08.92,2.04,1.8,3.16ZM79.49,346.41c1.22.5,2.41.87,3.61,1.2,1.47.4,2.96.54,3.67.39-1.99-.63-3.91-1.23-5.83-1.83-.35-.11-.36-.09-1.45.24ZM18.82,24.67c.19.49.24.7.35.87.66.96,1.34,1.91,2.02,2.86.11.15.26.24.41.05-.21-.97-.42-1.93-.65-2.98-.59-.22-1.21-.45-2.14-.8ZM67.57,114.78c1.6-.34,2.91-.84,3.93-1.92.21-.22.34-.52.45-.81.05-.12-.04-.3-.07-.46-.97.27-.98.27-1.29.75-.43.67-1.06,1.09-1.76,1.43-.32.16-.67.27-.98.45-.11.07-.14.27-.29.57ZM12.58,182.45c-.78-1.13-2.85-2.66-4.23-3.11.56,1.18,2.76,2.79,4.23,3.11ZM12.06,152.89c-1.16.06-2.16-.16-3.16-.42-.09-.02-.2.07-.35.13,1.11.55,2.15,1.08,3.21,1.59.09.05.24,0,.39-.01-.03-.39-.06-.75-.09-1.28ZM30.53,215.07c.38-.75.38-1.48.34-2.21-.5-.17-.96-.32-1.42-.47-.02,0-.07.04-.1.06,0,.08-.04.18-.01.24.39.8.79,1.59,1.19,2.38ZM5.86,1.5c.09.85.63,1.28,1.08,1.73.42.42.79.96,1.68,1.09-.67-1.31-1.38-2.31-2.76-2.82ZM96.21,351.2c-1.01-.41-1.77-.73-2.55-1.03-.5-.19-1.02-.36-1.54-.48-.27-.06-.52.05-.52.4,1.09.51,3.19,1.03,4.61,1.1ZM20.48,14.47s-.09-.04-.14-.06c-.26.85-.52,1.71-.82,2.7.04.06.17.3.34.5.14.17.15.51.53.48.03-1.23.05-2.43.08-3.63ZM16.17,185.39c.36.31.66.58.97.83.28.22.43.64.9.68l-.66-1.4-.65-1.39c-.2.45-.35.81-.56,1.28ZM36.39,60.45c.72.03,1.32.19,1.99.02-.18-.61-.23-1.18-.59-1.73-.45.54-.86,1.05-1.4,1.71ZM50.23,74.39c.03-.65.05-1.22.08-1.89-.63.49-1.17.91-1.81,1.42.61.17,1.12.3,1.74.47ZM14.92,182.8c0,.62,0,1,0,1.44.27-.04.51,0,.6-.1.16-.18.24-.44.38-.7-.31-.2-.56-.36-.96-.63ZM50.26,82.54c.69.28,1.2.16,1.79.1-.09-.25-.16-.44-.26-.72-.5.2-.93.38-1.53.62ZM14.64,164.22s.1-.03.14-.04c-.21-.64-.4-1.28-.62-1.91-.08-.22-.26-.37-.49-.11l.97,2.06ZM70.6,132.68c-.11,1.06,0,1.63.45,2.28.21-.83.15-1.6-.45-2.28ZM6.86,179.38c-.18-.61-.25-1.36-1.23-1.27.17.66.67.97,1.23,1.27ZM36.22,223.82c.02-.55.03-1,.04-1.46-.4.4-.66.81-.46,1.34.02.04.15.05.42.12ZM22.61,24.16c-.15.72-.1.78.9,1.09-.13-.48-.42-.79-.9-1.09ZM128.49,317.44c.26-.86-.06-1.31-.41-1.75.12.5.23,1,.41,1.75ZM18.13,117.48c-.04-.42.1-.8-.26-1.11q-.33.57.26,1.11ZM58.53,93.74c-.49.71-.17.97.32,1.48-.13-.59-.2-.91-.32-1.48ZM76.91,345.56q-.28-.41-1.1-.36c.5.16.78.25,1.1.36ZM16.34,169.08s.06-.03.08-.04c-.03-.13-.05-.26-.1-.38-.07-.15-.16-.3-.4-.7.1.42.11.56.16.68.07.15.16.3.25.44ZM27.95,36.87c-.07-.07-.1-.13-.13-.13-.16,0-.33,0-.48.03-.03,0,0,.23,0,.35.16-.03.32-.05.48-.09.03,0,.05-.06.13-.16ZM57.27,100.97c.05-.02.1-.05.16-.07-.05-.19-.09-.39-.16-.57-.01-.04-.16-.05-.22-.03-.06.03-.15.16-.13.19.1.17.23.32.35.48ZM152.59,250.08s-.02-.06-.02-.09c-.01.03-.03.07-.04.1,0,.03.02.06.03.1.01-.03.02-.07.04-.11ZM15.71,166.92s-.02.01-.04.02l.14.3s.03-.02.05-.02c-.05-.1-.1-.2-.16-.3ZM32.66,225.59s.02.06.03.09c.03-.01.07-.02.1-.04-.02-.05-.04-.09-.06-.14l-.07.09ZM70.47,131.92l-.06.02.06.07v-.09ZM129.72,291.71l-.07.02.07.08v-.11Z"/>
      <path class="cls-1" d="M40.55,182.12c-.1.15-.15.3-.24.32-.07.02-.21-.1-.27-.18-.03-.03.05-.22.09-.22.11,0,.23.04.41.08Z"/>
    </g>
  </g>
</svg>